G75*
G70*
%OFA0B0*%
%FSLAX24Y24*%
%IPPOS*%
%LPD*%
%AMOC8*
5,1,8,0,0,1.08239X$1,22.5*
%
%ADD10C,0.0160*%
%ADD11C,0.0770*%
%ADD12C,0.0820*%
%ADD13C,0.0740*%
%ADD14OC8,0.0640*%
%ADD15R,0.0474X0.0631*%
%ADD16C,0.0556*%
D10*
X017200Y000280D02*
X031700Y000280D01*
X031600Y003830D01*
X017100Y003830D01*
X017200Y000280D01*
X017198Y000347D02*
X031698Y000347D01*
X031694Y000506D02*
X017194Y000506D01*
X017189Y000664D02*
X031689Y000664D01*
X031685Y000823D02*
X017185Y000823D01*
X017180Y000981D02*
X031680Y000981D01*
X031676Y001140D02*
X017176Y001140D01*
X017171Y001298D02*
X031671Y001298D01*
X031667Y001457D02*
X017167Y001457D01*
X017162Y001615D02*
X031662Y001615D01*
X031658Y001774D02*
X017158Y001774D01*
X017153Y001932D02*
X031653Y001932D01*
X031649Y002091D02*
X017149Y002091D01*
X017145Y002249D02*
X031645Y002249D01*
X031640Y002408D02*
X017140Y002408D01*
X017136Y002566D02*
X031636Y002566D01*
X031631Y002725D02*
X017131Y002725D01*
X017127Y002883D02*
X031627Y002883D01*
X031622Y003042D02*
X017122Y003042D01*
X017118Y003200D02*
X031618Y003200D01*
X031613Y003359D02*
X017113Y003359D01*
X017109Y003517D02*
X031609Y003517D01*
X031604Y003676D02*
X017104Y003676D01*
X017100Y006530D02*
X017100Y010080D01*
X031600Y010080D01*
X031600Y006530D01*
X017100Y006530D01*
X017100Y006687D02*
X031600Y006687D01*
X031600Y006846D02*
X017100Y006846D01*
X017100Y007004D02*
X031600Y007004D01*
X031600Y007163D02*
X017100Y007163D01*
X017100Y007321D02*
X031600Y007321D01*
X031600Y007480D02*
X017100Y007480D01*
X017100Y007638D02*
X031600Y007638D01*
X031600Y007797D02*
X017100Y007797D01*
X017100Y007955D02*
X031600Y007955D01*
X031600Y008114D02*
X017100Y008114D01*
X017100Y008272D02*
X031600Y008272D01*
X031600Y008431D02*
X017100Y008431D01*
X017100Y008589D02*
X031600Y008589D01*
X031600Y008748D02*
X017100Y008748D01*
X017100Y008906D02*
X031600Y008906D01*
X031600Y009065D02*
X017100Y009065D01*
X017100Y009223D02*
X031600Y009223D01*
X031600Y009382D02*
X017100Y009382D01*
X017100Y009540D02*
X031600Y009540D01*
X031600Y009699D02*
X017100Y009699D01*
X017100Y009857D02*
X031600Y009857D01*
X031600Y010016D02*
X017100Y010016D01*
D11*
X002600Y001680D03*
X003600Y001680D03*
X004600Y001680D03*
X005600Y001680D03*
X006600Y001680D03*
X007600Y001680D03*
X008600Y001680D03*
X009600Y001680D03*
X010600Y001680D03*
X011600Y001680D03*
X012600Y001680D03*
X013600Y001680D03*
X013600Y008680D03*
X012600Y008680D03*
X011600Y008680D03*
X010600Y008680D03*
X009600Y008680D03*
X008600Y008680D03*
X007600Y008680D03*
X006600Y008680D03*
X005600Y008680D03*
X004600Y008680D03*
X003600Y008680D03*
X002600Y008680D03*
D12*
X001320Y009790D03*
X003880Y009790D03*
X003880Y011570D03*
X001320Y011570D03*
X003600Y007180D03*
X006100Y006680D03*
X007600Y006680D03*
X008600Y006680D03*
X010600Y006680D03*
X013600Y006680D03*
X015850Y006680D03*
X013100Y004930D03*
X012100Y004930D03*
X012600Y004180D03*
X015850Y003680D03*
X008600Y003680D03*
X007600Y003680D03*
X006100Y003680D03*
X005100Y003180D03*
X003600Y004180D03*
X002100Y003180D03*
D13*
X002100Y004643D03*
X002100Y006217D03*
D14*
X005600Y010680D03*
X007600Y010680D03*
X009600Y010680D03*
X009600Y011680D03*
X007600Y011680D03*
X005600Y011680D03*
D15*
X033726Y008363D03*
X034474Y008363D03*
X034100Y007497D03*
D16*
X035100Y007680D03*
X032600Y008180D03*
X031100Y008180D03*
X031100Y007180D03*
X028100Y007180D03*
X028100Y008180D03*
X028100Y009180D03*
X031100Y009180D03*
X032600Y009180D03*
X024600Y009180D03*
X024600Y008180D03*
X024600Y007180D03*
X021100Y007180D03*
X021100Y008180D03*
X021100Y009180D03*
X017600Y009180D03*
X016100Y009180D03*
X015100Y008680D03*
X017600Y008180D03*
X017600Y007180D03*
X017600Y003180D03*
X017600Y002180D03*
X016100Y002180D03*
X017600Y001180D03*
X021100Y001180D03*
X021100Y002180D03*
X021100Y003180D03*
X024600Y003180D03*
X024600Y002180D03*
X024600Y001180D03*
X028100Y001180D03*
X028100Y002180D03*
X028100Y003180D03*
X031100Y003180D03*
X031100Y002180D03*
X031100Y001180D03*
X005100Y005180D03*
M02*
