G75*
G70*
%OFA0B0*%
%FSLAX24Y24*%
%IPPOS*%
%LPD*%
%AMOC8*
5,1,8,0,0,1.08239X$1,22.5*
%
%ADD10C,0.0060*%
%ADD11C,0.0160*%
%ADD12C,0.0080*%
%ADD13C,0.0100*%
%ADD14C,0.0059*%
D10*
X000750Y002210D02*
X000963Y002210D01*
X001070Y002317D01*
X001070Y002637D01*
X001177Y002637D02*
X001284Y002530D01*
X001284Y002424D01*
X001177Y002637D02*
X000643Y002637D01*
X000643Y002317D01*
X000750Y002210D01*
X000963Y002855D02*
X000856Y002961D01*
X000856Y003282D01*
X000750Y003282D02*
X001070Y003282D01*
X001070Y002961D01*
X000963Y002855D01*
X000643Y002961D02*
X000643Y003175D01*
X000750Y003282D01*
X000856Y003499D02*
X000643Y003713D01*
X000643Y003819D01*
X000750Y004036D02*
X000643Y004143D01*
X000643Y004463D01*
X000429Y004463D02*
X001070Y004463D01*
X001070Y004143D01*
X000963Y004036D01*
X000750Y004036D01*
X000643Y003499D02*
X001070Y003499D01*
X002830Y003287D02*
X002943Y003400D01*
X002943Y003060D01*
X002830Y003060D02*
X003057Y003060D01*
X003198Y003117D02*
X003425Y003344D01*
X003425Y003117D01*
X003368Y003060D01*
X003255Y003060D01*
X003198Y003117D01*
X003198Y003344D01*
X003255Y003400D01*
X003368Y003400D01*
X003425Y003344D01*
X003567Y003400D02*
X003567Y003060D01*
X003567Y003173D02*
X003793Y003400D01*
X003623Y003230D02*
X003793Y003060D01*
X001070Y004788D02*
X000963Y004681D01*
X000750Y004681D01*
X000643Y004788D01*
X000643Y005001D01*
X000750Y005108D01*
X000856Y005108D01*
X000856Y004681D01*
X001070Y004788D02*
X001070Y005001D01*
X001070Y005325D02*
X000643Y005325D01*
X000643Y005646D01*
X000750Y005752D01*
X001070Y005752D01*
X000963Y005970D02*
X001070Y006077D01*
X001070Y006397D01*
X000963Y006614D02*
X001070Y006721D01*
X001070Y006935D01*
X000963Y007041D01*
X000750Y007041D01*
X000643Y006935D01*
X000643Y006721D01*
X000750Y006614D01*
X000963Y006614D01*
X000643Y006397D02*
X000643Y006077D01*
X000750Y005970D01*
X000963Y005970D01*
X003380Y005873D02*
X003607Y005647D01*
X003550Y005703D02*
X003720Y005873D01*
X003720Y005647D02*
X003380Y005647D01*
X003436Y005505D02*
X003663Y005278D01*
X003720Y005335D01*
X003720Y005448D01*
X003663Y005505D01*
X003436Y005505D01*
X003380Y005448D01*
X003380Y005335D01*
X003436Y005278D01*
X003663Y005278D01*
X003720Y005137D02*
X003720Y004910D01*
X003720Y005023D02*
X003380Y005023D01*
X003493Y004910D01*
X005980Y005387D02*
X006320Y005387D01*
X006320Y005500D02*
X006320Y005273D01*
X006093Y005273D02*
X005980Y005387D01*
X005980Y005642D02*
X006320Y005642D01*
X006207Y005642D02*
X005980Y005869D01*
X006150Y005698D02*
X006320Y005869D01*
X007480Y005869D02*
X007707Y005642D01*
X007650Y005698D02*
X007820Y005869D01*
X007820Y005642D02*
X007480Y005642D01*
X007820Y005500D02*
X007820Y005273D01*
X007820Y005387D02*
X007480Y005387D01*
X007593Y005273D01*
X008480Y005387D02*
X008820Y005387D01*
X008820Y005500D02*
X008820Y005273D01*
X008593Y005273D02*
X008480Y005387D01*
X008480Y005642D02*
X008820Y005642D01*
X008707Y005642D02*
X008480Y005869D01*
X008650Y005698D02*
X008820Y005869D01*
X011825Y006460D02*
X012052Y006460D01*
X011938Y006460D02*
X011938Y006800D01*
X011825Y006687D01*
X012193Y006744D02*
X012193Y006517D01*
X012420Y006744D01*
X012420Y006517D01*
X012364Y006460D01*
X012250Y006460D01*
X012193Y006517D01*
X012193Y006744D02*
X012250Y006800D01*
X012364Y006800D01*
X012420Y006744D01*
X012562Y006744D02*
X012618Y006800D01*
X012732Y006800D01*
X012789Y006744D01*
X012562Y006517D01*
X012618Y006460D01*
X012732Y006460D01*
X012789Y006517D01*
X012789Y006744D01*
X012562Y006744D02*
X012562Y006517D01*
X015630Y005317D02*
X015686Y005373D01*
X015913Y005147D01*
X015970Y005203D01*
X015970Y005317D01*
X015913Y005373D01*
X015686Y005373D01*
X015630Y005317D02*
X015630Y005203D01*
X015686Y005147D01*
X015913Y005147D01*
X015913Y005005D02*
X015970Y004948D01*
X015970Y004835D01*
X015913Y004778D01*
X015686Y005005D01*
X015913Y005005D01*
X015686Y005005D02*
X015630Y004948D01*
X015630Y004835D01*
X015686Y004778D01*
X015913Y004778D01*
X015970Y004637D02*
X015970Y004410D01*
X015970Y004523D02*
X015630Y004523D01*
X015743Y004410D01*
X001070Y007259D02*
X000643Y007259D01*
X000856Y007259D02*
X000643Y007472D01*
X000643Y007579D01*
X000750Y007796D02*
X000643Y007903D01*
X000643Y008116D01*
X000750Y008223D01*
X000856Y008223D01*
X000856Y007796D01*
X000750Y007796D02*
X000963Y007796D01*
X001070Y007903D01*
X001070Y008116D01*
X005000Y011180D02*
X005002Y011225D01*
X005007Y011271D01*
X005015Y011315D01*
X005027Y011359D01*
X005043Y011402D01*
X005061Y011444D01*
X005083Y011484D01*
X005107Y011522D01*
X005134Y011558D01*
X005164Y011593D01*
X005197Y011624D01*
X005232Y011654D01*
X006200Y011180D02*
X006198Y011133D01*
X006192Y011085D01*
X006183Y011039D01*
X006170Y010993D01*
X006154Y010949D01*
X006133Y010905D01*
X006110Y010864D01*
X006084Y010825D01*
X006054Y010788D01*
X006021Y010753D01*
X005986Y010721D01*
X005949Y010692D01*
X006200Y011180D02*
X006198Y011226D01*
X006193Y011272D01*
X006184Y011318D01*
X006172Y011363D01*
X006156Y011406D01*
X006137Y011448D01*
X006114Y011489D01*
X006089Y011528D01*
X006061Y011564D01*
X006030Y011599D01*
X005996Y011631D01*
X005960Y011660D01*
X005000Y011180D02*
X005002Y011135D01*
X005007Y011089D01*
X005015Y011045D01*
X005027Y011001D01*
X005043Y010958D01*
X005061Y010916D01*
X005083Y010876D01*
X005107Y010838D01*
X005134Y010802D01*
X005164Y010767D01*
X005197Y010736D01*
X005232Y010706D01*
X007000Y011180D02*
X007002Y011225D01*
X007007Y011271D01*
X007015Y011315D01*
X007027Y011359D01*
X007043Y011402D01*
X007061Y011444D01*
X007083Y011484D01*
X007107Y011522D01*
X007134Y011558D01*
X007164Y011593D01*
X007197Y011624D01*
X007232Y011654D01*
X008200Y011180D02*
X008198Y011133D01*
X008192Y011085D01*
X008183Y011039D01*
X008170Y010993D01*
X008154Y010949D01*
X008133Y010905D01*
X008110Y010864D01*
X008084Y010825D01*
X008054Y010788D01*
X008021Y010753D01*
X007986Y010721D01*
X007949Y010692D01*
X008200Y011180D02*
X008198Y011226D01*
X008193Y011272D01*
X008184Y011318D01*
X008172Y011363D01*
X008156Y011406D01*
X008137Y011448D01*
X008114Y011489D01*
X008089Y011528D01*
X008061Y011564D01*
X008030Y011599D01*
X007996Y011631D01*
X007960Y011660D01*
X007000Y011180D02*
X007002Y011135D01*
X007007Y011089D01*
X007015Y011045D01*
X007027Y011001D01*
X007043Y010958D01*
X007061Y010916D01*
X007083Y010876D01*
X007107Y010838D01*
X007134Y010802D01*
X007164Y010767D01*
X007197Y010736D01*
X007232Y010706D01*
X009000Y011180D02*
X009002Y011225D01*
X009007Y011271D01*
X009015Y011315D01*
X009027Y011359D01*
X009043Y011402D01*
X009061Y011444D01*
X009083Y011484D01*
X009107Y011522D01*
X009134Y011558D01*
X009164Y011593D01*
X009197Y011624D01*
X009232Y011654D01*
X010200Y011180D02*
X010198Y011133D01*
X010192Y011085D01*
X010183Y011039D01*
X010170Y010993D01*
X010154Y010949D01*
X010133Y010905D01*
X010110Y010864D01*
X010084Y010825D01*
X010054Y010788D01*
X010021Y010753D01*
X009986Y010721D01*
X009949Y010692D01*
X010200Y011180D02*
X010198Y011226D01*
X010193Y011272D01*
X010184Y011318D01*
X010172Y011363D01*
X010156Y011406D01*
X010137Y011448D01*
X010114Y011489D01*
X010089Y011528D01*
X010061Y011564D01*
X010030Y011599D01*
X009996Y011631D01*
X009960Y011660D01*
X009000Y011180D02*
X009002Y011135D01*
X009007Y011089D01*
X009015Y011045D01*
X009027Y011001D01*
X009043Y010958D01*
X009061Y010916D01*
X009083Y010876D01*
X009107Y010838D01*
X009134Y010802D01*
X009164Y010767D01*
X009197Y010736D01*
X009232Y010706D01*
X033540Y007990D02*
X033540Y007670D01*
X033760Y007670D01*
X034440Y007670D02*
X034660Y007670D01*
X034660Y007990D01*
D11*
X001100Y001680D02*
X001100Y001180D01*
X002100Y001180D01*
X014100Y001180D02*
X015100Y002180D01*
X015100Y008180D01*
X014100Y009180D01*
X002100Y009180D02*
X001100Y009180D01*
X001100Y008680D01*
D12*
X002100Y008430D02*
X002350Y008180D01*
X002850Y008180D01*
X003100Y008430D01*
X003350Y008180D01*
X003850Y008180D01*
X004100Y008430D01*
X004350Y008180D01*
X004850Y008180D01*
X005100Y008430D01*
X005350Y008180D01*
X005850Y008180D01*
X006100Y008430D01*
X006350Y008180D01*
X006850Y008180D01*
X007100Y008430D01*
X007350Y008180D01*
X007850Y008180D01*
X008100Y008430D01*
X008350Y008180D01*
X008850Y008180D01*
X009100Y008430D01*
X009350Y008180D01*
X009850Y008180D01*
X010100Y008430D01*
X010350Y008180D01*
X010850Y008180D01*
X011100Y008430D01*
X011350Y008180D01*
X011850Y008180D01*
X012100Y008430D01*
X012350Y008180D01*
X012850Y008180D01*
X013100Y008430D01*
X013350Y008180D01*
X013850Y008180D01*
X014100Y008430D01*
X014100Y008930D01*
X013850Y009180D01*
X013350Y009180D01*
X013100Y008930D01*
X012850Y009180D01*
X012350Y009180D01*
X012100Y008930D01*
X011850Y009180D01*
X011350Y009180D01*
X011100Y008930D01*
X010850Y009180D01*
X010350Y009180D01*
X010100Y008930D01*
X009850Y009180D01*
X009350Y009180D01*
X009100Y008930D01*
X008850Y009180D01*
X008350Y009180D01*
X008100Y008930D01*
X007850Y009180D01*
X007350Y009180D01*
X007100Y008930D01*
X006850Y009180D01*
X006350Y009180D01*
X006100Y008930D01*
X005850Y009180D01*
X005350Y009180D01*
X005100Y008930D01*
X004850Y009180D01*
X004350Y009180D01*
X004100Y008930D01*
X003850Y009180D01*
X003350Y009180D01*
X003100Y008930D01*
X002850Y009180D01*
X002350Y009180D01*
X002100Y008930D01*
X002100Y008430D01*
X001750Y009480D02*
X003450Y009480D01*
X003800Y010275D02*
X003800Y011080D01*
X001900Y010680D02*
X001902Y010732D01*
X001908Y010784D01*
X001918Y010836D01*
X001931Y010886D01*
X001948Y010936D01*
X001969Y010984D01*
X001994Y011030D01*
X002022Y011074D01*
X002053Y011116D01*
X002087Y011156D01*
X002124Y011193D01*
X002164Y011227D01*
X002206Y011258D01*
X002250Y011286D01*
X002296Y011311D01*
X002344Y011332D01*
X002394Y011349D01*
X002444Y011362D01*
X002496Y011372D01*
X002548Y011378D01*
X002600Y011380D01*
X002652Y011378D01*
X002704Y011372D01*
X002756Y011362D01*
X002806Y011349D01*
X002856Y011332D01*
X002904Y011311D01*
X002950Y011286D01*
X002994Y011258D01*
X003036Y011227D01*
X003076Y011193D01*
X003113Y011156D01*
X003147Y011116D01*
X003178Y011074D01*
X003206Y011030D01*
X003231Y010984D01*
X003252Y010936D01*
X003269Y010886D01*
X003282Y010836D01*
X003292Y010784D01*
X003298Y010732D01*
X003300Y010680D01*
X003298Y010628D01*
X003292Y010576D01*
X003282Y010524D01*
X003269Y010474D01*
X003252Y010424D01*
X003231Y010376D01*
X003206Y010330D01*
X003178Y010286D01*
X003147Y010244D01*
X003113Y010204D01*
X003076Y010167D01*
X003036Y010133D01*
X002994Y010102D01*
X002950Y010074D01*
X002904Y010049D01*
X002856Y010028D01*
X002806Y010011D01*
X002756Y009998D01*
X002704Y009988D01*
X002652Y009982D01*
X002600Y009980D01*
X002548Y009982D01*
X002496Y009988D01*
X002444Y009998D01*
X002394Y010011D01*
X002344Y010028D01*
X002296Y010049D01*
X002250Y010074D01*
X002206Y010102D01*
X002164Y010133D01*
X002124Y010167D01*
X002087Y010204D01*
X002053Y010244D01*
X002022Y010286D01*
X001994Y010330D01*
X001969Y010376D01*
X001948Y010424D01*
X001931Y010474D01*
X001918Y010524D01*
X001908Y010576D01*
X001902Y010628D01*
X001900Y010680D01*
X001400Y010287D02*
X001400Y011080D01*
X001750Y011880D02*
X003450Y011880D01*
X011100Y006980D02*
X013100Y006980D01*
X013100Y006680D01*
X013200Y006680D01*
X013100Y006680D02*
X013100Y006380D01*
X011100Y006380D01*
X011100Y006680D01*
X011000Y006680D01*
X011100Y006680D02*
X011100Y006980D01*
X008900Y006180D02*
X008600Y006180D01*
X008600Y006280D01*
X008600Y006180D02*
X008300Y006180D01*
X008300Y004180D01*
X008600Y004180D01*
X008600Y004080D01*
X008600Y004180D02*
X008900Y004180D01*
X008900Y006180D01*
X007900Y006180D02*
X007600Y006180D01*
X007600Y006280D01*
X007600Y006180D02*
X007300Y006180D01*
X007300Y004180D01*
X007600Y004180D01*
X007600Y004080D01*
X007600Y004180D02*
X007900Y004180D01*
X007900Y006180D01*
X006400Y006180D02*
X006100Y006180D01*
X006100Y006280D01*
X006100Y006180D02*
X005800Y006180D01*
X005800Y004180D01*
X006100Y004180D01*
X006100Y004080D01*
X006100Y004180D02*
X006400Y004180D01*
X006400Y006180D01*
X003900Y006680D02*
X003900Y004680D01*
X003600Y004680D01*
X003600Y004580D01*
X003600Y004680D02*
X003300Y004680D01*
X003300Y006680D01*
X003600Y006680D01*
X003600Y006780D01*
X003600Y006680D02*
X003900Y006680D01*
X002887Y005824D02*
X002887Y005036D01*
X002882Y004992D01*
X002873Y004948D01*
X002862Y004904D01*
X002846Y004862D01*
X002828Y004821D01*
X002806Y004782D01*
X002782Y004745D01*
X002754Y004709D01*
X002724Y004676D01*
X002691Y004646D01*
X002656Y004618D01*
X002619Y004593D01*
X002580Y004571D01*
X002539Y004552D01*
X002497Y004537D01*
X002454Y004525D01*
X001746Y004525D02*
X001703Y004537D01*
X001661Y004552D01*
X001620Y004571D01*
X001581Y004593D01*
X001544Y004618D01*
X001509Y004646D01*
X001476Y004676D01*
X001446Y004709D01*
X001418Y004745D01*
X001394Y004782D01*
X001372Y004821D01*
X001354Y004862D01*
X001338Y004904D01*
X001327Y004948D01*
X001318Y004992D01*
X001313Y005036D01*
X001313Y005824D01*
X001318Y005868D01*
X001327Y005912D01*
X001338Y005956D01*
X001354Y005998D01*
X001372Y006039D01*
X001394Y006078D01*
X001418Y006115D01*
X001446Y006151D01*
X001476Y006184D01*
X001509Y006214D01*
X001544Y006242D01*
X001581Y006267D01*
X001620Y006289D01*
X001661Y006308D01*
X001703Y006323D01*
X001746Y006335D01*
X002454Y006335D02*
X002497Y006323D01*
X002539Y006308D01*
X002580Y006289D01*
X002619Y006267D01*
X002656Y006242D01*
X002691Y006214D01*
X002724Y006184D01*
X002754Y006151D01*
X002782Y006115D01*
X002806Y006078D01*
X002828Y006039D01*
X002846Y005998D01*
X002862Y005956D01*
X002873Y005912D01*
X002882Y005868D01*
X002887Y005824D01*
X002600Y003480D02*
X002600Y003180D01*
X002500Y003180D01*
X002600Y003180D02*
X002600Y002880D01*
X004600Y002880D01*
X004600Y003180D01*
X004700Y003180D01*
X004600Y003180D02*
X004600Y003480D01*
X002600Y003480D01*
X002350Y002180D02*
X002100Y001930D01*
X002100Y001430D01*
X002350Y001180D01*
X002850Y001180D01*
X003100Y001430D01*
X003350Y001180D01*
X003850Y001180D01*
X004100Y001430D01*
X004350Y001180D01*
X004850Y001180D01*
X005100Y001430D01*
X005350Y001180D01*
X005850Y001180D01*
X006100Y001430D01*
X006350Y001180D01*
X006850Y001180D01*
X007100Y001430D01*
X007350Y001180D01*
X007850Y001180D01*
X008100Y001430D01*
X008350Y001180D01*
X008850Y001180D01*
X009100Y001430D01*
X009350Y001180D01*
X009850Y001180D01*
X010100Y001430D01*
X010350Y001180D01*
X010850Y001180D01*
X011100Y001430D01*
X011350Y001180D01*
X011850Y001180D01*
X012100Y001430D01*
X012350Y001180D01*
X012850Y001180D01*
X013100Y001430D01*
X013350Y001180D01*
X013850Y001180D01*
X014100Y001430D01*
X014100Y001930D01*
X013850Y002180D01*
X013350Y002180D01*
X013100Y001930D01*
X012850Y002180D01*
X012350Y002180D01*
X012100Y001930D01*
X011850Y002180D01*
X011350Y002180D01*
X011100Y001930D01*
X010850Y002180D01*
X010350Y002180D01*
X010100Y001930D01*
X009850Y002180D01*
X009350Y002180D01*
X009100Y001930D01*
X008850Y002180D01*
X008350Y002180D01*
X008100Y001930D01*
X007850Y002180D01*
X007350Y002180D01*
X007100Y001930D01*
X006850Y002180D01*
X006350Y002180D01*
X006100Y001930D01*
X005850Y002180D01*
X005350Y002180D01*
X005100Y001930D01*
X004850Y002180D01*
X004350Y002180D01*
X004100Y001930D01*
X003850Y002180D01*
X003350Y002180D01*
X003100Y001930D01*
X002850Y002180D01*
X002350Y002180D01*
X011555Y005030D02*
X011713Y005030D01*
X012487Y005030D02*
X012713Y005030D01*
X011775Y005580D02*
X011738Y005529D01*
X011703Y005476D01*
X011671Y005420D01*
X011643Y005363D01*
X011619Y005304D01*
X011598Y005244D01*
X011581Y005183D01*
X011567Y005121D01*
X011558Y005058D01*
X011552Y004995D01*
X011550Y004931D01*
X011552Y004867D01*
X011558Y004804D01*
X011567Y004741D01*
X011580Y004679D01*
X011598Y004618D01*
X011618Y004558D01*
X011643Y004499D01*
X011670Y004442D01*
X011702Y004386D01*
X011736Y004333D01*
X011774Y004282D01*
X011815Y004233D01*
X011859Y004187D01*
X011905Y004143D01*
X011954Y004102D01*
X012005Y004065D01*
X012059Y004030D01*
X012114Y003999D01*
X012171Y003971D01*
X012230Y003947D01*
X012290Y003927D01*
X012910Y003927D02*
X012970Y003947D01*
X013029Y003971D01*
X013086Y003999D01*
X013141Y004030D01*
X013195Y004065D01*
X013246Y004102D01*
X013295Y004143D01*
X013341Y004187D01*
X013385Y004233D01*
X013426Y004282D01*
X013464Y004333D01*
X013498Y004386D01*
X013529Y004442D01*
X013557Y004499D01*
X013582Y004558D01*
X013602Y004618D01*
X013620Y004679D01*
X013633Y004741D01*
X013642Y004804D01*
X013648Y004867D01*
X013650Y004931D01*
X013648Y004995D01*
X013642Y005058D01*
X013633Y005121D01*
X013619Y005183D01*
X013602Y005244D01*
X013581Y005304D01*
X013557Y005363D01*
X013529Y005420D01*
X013497Y005476D01*
X013462Y005529D01*
X013425Y005580D01*
X011775Y005580D01*
X013487Y005030D02*
X013645Y005030D01*
X015550Y004180D02*
X015850Y004180D01*
X015850Y004080D01*
X015850Y004180D02*
X016150Y004180D01*
X016150Y006180D01*
X015850Y006180D01*
X015850Y006280D01*
X015850Y006180D02*
X015550Y006180D01*
X015550Y004180D01*
D13*
X010400Y011180D02*
X010398Y011234D01*
X010393Y011288D01*
X010384Y011341D01*
X010371Y011394D01*
X010355Y011445D01*
X010335Y011495D01*
X010312Y011544D01*
X010286Y011592D01*
X010257Y011637D01*
X010224Y011680D01*
X010189Y011721D01*
X010151Y011760D01*
X010111Y011796D01*
X010068Y011829D01*
X010023Y011859D01*
X009976Y011886D01*
X009203Y011875D02*
X009155Y011845D01*
X009110Y011812D01*
X009067Y011776D01*
X009026Y011738D01*
X008989Y011696D01*
X008954Y011652D01*
X008923Y011606D01*
X008894Y011557D01*
X008870Y011507D01*
X008849Y011455D01*
X008831Y011401D01*
X008818Y011347D01*
X008808Y011292D01*
X008802Y011236D01*
X008800Y011180D01*
X008802Y011127D01*
X008807Y011073D01*
X008816Y011021D01*
X008828Y010969D01*
X008844Y010918D01*
X008863Y010868D01*
X008886Y010819D01*
X008912Y010772D01*
X008940Y010727D01*
X008972Y010684D01*
X009006Y010644D01*
X009044Y010605D01*
X009083Y010569D01*
X010112Y010565D02*
X010152Y010601D01*
X010190Y010640D01*
X010225Y010681D01*
X010257Y010724D01*
X010287Y010769D01*
X010313Y010816D01*
X010335Y010865D01*
X010355Y010916D01*
X010371Y010967D01*
X010384Y011019D01*
X010393Y011073D01*
X010398Y011126D01*
X010400Y011180D01*
X007203Y011875D02*
X007155Y011845D01*
X007110Y011812D01*
X007067Y011776D01*
X007026Y011738D01*
X006989Y011696D01*
X006954Y011652D01*
X006923Y011606D01*
X006894Y011557D01*
X006870Y011507D01*
X006849Y011455D01*
X006831Y011401D01*
X006818Y011347D01*
X006808Y011292D01*
X006802Y011236D01*
X006800Y011180D01*
X007976Y011886D02*
X008023Y011859D01*
X008068Y011829D01*
X008111Y011796D01*
X008151Y011760D01*
X008189Y011721D01*
X008224Y011680D01*
X008257Y011637D01*
X008286Y011592D01*
X008312Y011544D01*
X008335Y011495D01*
X008355Y011445D01*
X008371Y011394D01*
X008384Y011341D01*
X008393Y011288D01*
X008398Y011234D01*
X008400Y011180D01*
X007083Y010569D02*
X007044Y010605D01*
X007006Y010644D01*
X006972Y010684D01*
X006940Y010727D01*
X006912Y010772D01*
X006886Y010819D01*
X006863Y010868D01*
X006844Y010918D01*
X006828Y010969D01*
X006816Y011021D01*
X006807Y011073D01*
X006802Y011127D01*
X006800Y011180D01*
X008112Y010565D02*
X008152Y010601D01*
X008190Y010640D01*
X008225Y010681D01*
X008257Y010724D01*
X008287Y010769D01*
X008313Y010816D01*
X008335Y010865D01*
X008355Y010916D01*
X008371Y010967D01*
X008384Y011019D01*
X008393Y011073D01*
X008398Y011126D01*
X008400Y011180D01*
X005203Y011875D02*
X005155Y011845D01*
X005110Y011812D01*
X005067Y011776D01*
X005026Y011738D01*
X004989Y011696D01*
X004954Y011652D01*
X004923Y011606D01*
X004894Y011557D01*
X004870Y011507D01*
X004849Y011455D01*
X004831Y011401D01*
X004818Y011347D01*
X004808Y011292D01*
X004802Y011236D01*
X004800Y011180D01*
X005976Y011886D02*
X006023Y011859D01*
X006068Y011829D01*
X006111Y011796D01*
X006151Y011760D01*
X006189Y011721D01*
X006224Y011680D01*
X006257Y011637D01*
X006286Y011592D01*
X006312Y011544D01*
X006335Y011495D01*
X006355Y011445D01*
X006371Y011394D01*
X006384Y011341D01*
X006393Y011288D01*
X006398Y011234D01*
X006400Y011180D01*
X005083Y010569D02*
X005044Y010605D01*
X005006Y010644D01*
X004972Y010684D01*
X004940Y010727D01*
X004912Y010772D01*
X004886Y010819D01*
X004863Y010868D01*
X004844Y010918D01*
X004828Y010969D01*
X004816Y011021D01*
X004807Y011073D01*
X004802Y011127D01*
X004800Y011180D01*
X006112Y010565D02*
X006152Y010601D01*
X006190Y010640D01*
X006225Y010681D01*
X006257Y010724D01*
X006287Y010769D01*
X006313Y010816D01*
X006335Y010865D01*
X006355Y010916D01*
X006371Y010967D01*
X006384Y011019D01*
X006393Y011073D01*
X006398Y011126D01*
X006400Y011180D01*
D14*
X001315Y008294D02*
X001214Y008395D01*
X001065Y008274D01*
X001005Y008305D01*
X000941Y008326D01*
X000922Y008516D01*
X000778Y008516D01*
X000759Y008326D01*
X000695Y008305D01*
X000635Y008274D01*
X000486Y008395D01*
X000385Y008294D01*
X000506Y008145D01*
X000475Y008085D01*
X000454Y008021D01*
X000264Y008002D01*
X000264Y007858D01*
X000454Y007839D01*
X000475Y007775D01*
X000506Y007715D01*
X000385Y007566D01*
X000486Y007465D01*
X000635Y007586D01*
X000695Y007555D01*
X000759Y007534D01*
X000778Y007344D01*
X000922Y007344D01*
X000941Y007534D01*
X001005Y007555D01*
X001065Y007586D01*
X001214Y007465D01*
X001315Y007566D01*
X001194Y007715D01*
X001225Y007775D01*
X001021Y007859D01*
X000999Y007822D01*
X000970Y007790D01*
X000934Y007766D01*
X000893Y007751D01*
X000850Y007745D01*
X000806Y007751D01*
X000765Y007766D01*
X000728Y007791D01*
X000699Y007824D01*
X000678Y007863D01*
X000667Y007906D01*
X000667Y007950D01*
X000677Y007993D01*
X000697Y008032D01*
X000725Y008066D01*
X000761Y008092D01*
X000802Y008108D01*
X000846Y008114D01*
X000890Y008110D01*
X000932Y008095D01*
X000969Y008071D01*
X000999Y008039D01*
X001021Y008001D01*
X001225Y008085D01*
X001194Y008145D01*
X001315Y008294D01*
X001313Y008296D02*
X001091Y008296D01*
X001024Y008296D02*
X000676Y008296D01*
X000609Y008296D02*
X000387Y008296D01*
X000430Y008238D02*
X001270Y008238D01*
X001223Y008181D02*
X000477Y008181D01*
X000494Y008123D02*
X001206Y008123D01*
X001177Y008065D02*
X000974Y008065D01*
X001016Y008008D02*
X001038Y008008D01*
X001007Y007835D02*
X001079Y007835D01*
X000952Y007778D02*
X001218Y007778D01*
X001197Y007720D02*
X000503Y007720D01*
X000474Y007778D02*
X000748Y007778D01*
X000693Y007835D02*
X000455Y007835D01*
X000463Y007663D02*
X001237Y007663D01*
X001284Y007605D02*
X000416Y007605D01*
X000404Y007547D02*
X000588Y007547D01*
X000517Y007490D02*
X000461Y007490D01*
X000718Y007547D02*
X000982Y007547D01*
X000937Y007490D02*
X000763Y007490D01*
X000769Y007432D02*
X000931Y007432D01*
X000925Y007375D02*
X000775Y007375D01*
X001183Y007490D02*
X001239Y007490D01*
X001296Y007547D02*
X001112Y007547D01*
X000670Y007893D02*
X000264Y007893D01*
X000264Y007950D02*
X000667Y007950D01*
X000684Y008008D02*
X000322Y008008D01*
X000469Y008065D02*
X000725Y008065D01*
X000761Y008353D02*
X000939Y008353D01*
X000933Y008411D02*
X000767Y008411D01*
X000773Y008468D02*
X000927Y008468D01*
X001162Y008353D02*
X001256Y008353D01*
X000538Y008353D02*
X000444Y008353D01*
M02*
