G75*
%MOIN*%
%OFA0B0*%
%FSLAX24Y24*%
%IPPOS*%
%LPD*%
%AMOC8*
5,1,8,0,0,1.08239X$1,22.5*
%
%ADD10C,0.0000*%
%ADD11C,0.0690*%
%ADD12C,0.0740*%
%ADD13C,0.0660*%
%ADD14OC8,0.0560*%
%ADD15R,0.0394X0.0551*%
%ADD16C,0.0240*%
%ADD17C,0.0476*%
%ADD18C,0.0160*%
%ADD19C,0.0100*%
%ADD20C,0.0120*%
%ADD21C,0.0360*%
D10*
X000600Y000180D02*
X000100Y000680D01*
X000100Y011680D01*
X000600Y012180D01*
X013350Y012180D01*
X013850Y011680D01*
X013850Y010680D01*
X014350Y010180D01*
X033100Y010180D01*
X033600Y009680D01*
X034600Y009680D01*
X036100Y008680D01*
X036100Y007430D01*
X034600Y006430D01*
X017100Y006430D01*
X016600Y005930D01*
X016600Y004430D01*
X017100Y003930D01*
X034600Y003930D01*
X036100Y002930D01*
X036100Y001680D01*
X034600Y000680D01*
X033600Y000680D01*
X033100Y000180D01*
X000600Y000180D01*
D11*
X002600Y001680D03*
X003600Y001680D03*
X004600Y001680D03*
X005600Y001680D03*
X006600Y001680D03*
X007600Y001680D03*
X008600Y001680D03*
X009600Y001680D03*
X010600Y001680D03*
X011600Y001680D03*
X012600Y001680D03*
X013600Y001680D03*
X013600Y008680D03*
X012600Y008680D03*
X011600Y008680D03*
X010600Y008680D03*
X009600Y008680D03*
X008600Y008680D03*
X007600Y008680D03*
X006600Y008680D03*
X005600Y008680D03*
X004600Y008680D03*
X003600Y008680D03*
X002600Y008680D03*
D12*
X001320Y009790D03*
X003880Y009790D03*
X003880Y011570D03*
X001320Y011570D03*
X011100Y011180D03*
X012100Y011180D03*
X013100Y011180D03*
X003600Y007180D03*
X006100Y006680D03*
X007600Y006680D03*
X008600Y006680D03*
X010600Y006680D03*
X013600Y006680D03*
X015850Y006680D03*
X013100Y004930D03*
X012100Y004930D03*
X012600Y004180D03*
X015850Y003680D03*
X008600Y003680D03*
X007600Y003680D03*
X006100Y003680D03*
X005100Y003180D03*
X003600Y004180D03*
X002100Y003180D03*
D13*
X002100Y004643D03*
X002100Y006217D03*
D14*
X005350Y010680D03*
X007350Y010680D03*
X009350Y010680D03*
X009350Y011680D03*
X007350Y011680D03*
X005350Y011680D03*
D15*
X033726Y008363D03*
X034474Y008363D03*
X034100Y007497D03*
D16*
X015100Y008680D02*
X014350Y007680D01*
X014100Y007680D01*
X011100Y007680D01*
X010600Y006680D01*
X008600Y004680D01*
X008600Y003680D01*
X005100Y005180D02*
X005100Y008180D01*
X005600Y008680D01*
X002600Y008680D02*
X002600Y011180D01*
X003100Y011680D01*
X003600Y011680D01*
X003880Y011570D01*
X002600Y008680D02*
X002600Y006680D01*
X002100Y006180D01*
X002100Y003180D02*
X003600Y001680D01*
D17*
X005100Y005180D03*
X015100Y008680D03*
X016100Y009180D03*
X017600Y009180D03*
X017600Y008180D03*
X017600Y007180D03*
X021100Y007180D03*
X021100Y008180D03*
X021100Y009180D03*
X024600Y009180D03*
X024600Y008180D03*
X024600Y007180D03*
X028100Y007180D03*
X028100Y008180D03*
X028100Y009180D03*
X031100Y009180D03*
X032600Y009180D03*
X032600Y008180D03*
X031100Y008180D03*
X031100Y007180D03*
X035100Y007680D03*
X031100Y003180D03*
X031100Y002180D03*
X031100Y001180D03*
X028100Y001180D03*
X028100Y002180D03*
X028100Y003180D03*
X024600Y003180D03*
X024600Y002180D03*
X024600Y001180D03*
X021100Y001180D03*
X021100Y002180D03*
X021100Y003180D03*
X017600Y003180D03*
X017600Y002180D03*
X016100Y002180D03*
X017600Y001180D03*
D18*
X017100Y001140D02*
X031600Y001140D01*
X031600Y001298D02*
X017100Y001298D01*
X017100Y001457D02*
X031600Y001457D01*
X031600Y001615D02*
X017100Y001615D01*
X017100Y001774D02*
X031600Y001774D01*
X031600Y001932D02*
X017100Y001932D01*
X017100Y002091D02*
X031600Y002091D01*
X031600Y002249D02*
X017100Y002249D01*
X017100Y002408D02*
X031600Y002408D01*
X031600Y002566D02*
X017100Y002566D01*
X017100Y002725D02*
X031600Y002725D01*
X031600Y002883D02*
X017100Y002883D01*
X017100Y003042D02*
X031600Y003042D01*
X031600Y003200D02*
X017100Y003200D01*
X017100Y003359D02*
X031600Y003359D01*
X031600Y003517D02*
X017100Y003517D01*
X017100Y003676D02*
X031600Y003676D01*
X031600Y003750D02*
X031600Y000360D01*
X017100Y000360D01*
X017100Y003750D01*
X031600Y003750D01*
X031600Y000981D02*
X017100Y000981D01*
X017100Y000823D02*
X031600Y000823D01*
X031600Y000664D02*
X017100Y000664D01*
X017100Y000506D02*
X031600Y000506D01*
X014600Y003680D02*
X014600Y007180D01*
X016100Y009180D01*
X017100Y009223D02*
X031600Y009223D01*
X031600Y009382D02*
X017100Y009382D01*
X017100Y009540D02*
X031600Y009540D01*
X031600Y009699D02*
X017100Y009699D01*
X017100Y009857D02*
X031600Y009857D01*
X031600Y010000D02*
X031600Y006610D01*
X017100Y006610D01*
X017100Y010000D01*
X031600Y010000D01*
X032600Y009180D02*
X033600Y008430D01*
X032600Y008180D02*
X034000Y007480D01*
X034100Y007430D01*
X035100Y007680D02*
X035100Y008180D01*
X034700Y008380D01*
X034600Y008430D01*
X031600Y008431D02*
X017100Y008431D01*
X017100Y008589D02*
X031600Y008589D01*
X031600Y008748D02*
X017100Y008748D01*
X017100Y008906D02*
X031600Y008906D01*
X031600Y009065D02*
X017100Y009065D01*
X017100Y008272D02*
X031600Y008272D01*
X031600Y008114D02*
X017100Y008114D01*
X017100Y007955D02*
X031600Y007955D01*
X031600Y007797D02*
X017100Y007797D01*
X017100Y007638D02*
X031600Y007638D01*
X031600Y007480D02*
X017100Y007480D01*
X017100Y007321D02*
X031600Y007321D01*
X031600Y007163D02*
X017100Y007163D01*
X017100Y007004D02*
X031600Y007004D01*
X031600Y006846D02*
X017100Y006846D01*
X017100Y006687D02*
X031600Y006687D01*
X014600Y003680D02*
X012600Y001680D01*
D19*
X011600Y001680D02*
X013350Y003680D01*
X013350Y004430D01*
X013100Y004930D01*
X013100Y006180D01*
X013600Y006680D01*
X005100Y004180D02*
X004600Y004680D01*
X002100Y004680D01*
X002100Y004643D01*
X005100Y004180D02*
X005100Y003180D01*
X002100Y006180D02*
X002100Y006217D01*
X033600Y008430D02*
X033667Y008363D01*
X033726Y008363D01*
X034474Y008363D02*
X034683Y008363D01*
X034700Y008380D01*
X034100Y007497D02*
X034017Y007497D01*
X034000Y007480D01*
D20*
X013100Y011180D02*
X012600Y011930D01*
X010850Y011930D01*
X010350Y011430D01*
X010350Y009180D01*
X010600Y008680D01*
X011100Y007680D02*
X011100Y011180D01*
X009350Y010680D02*
X008600Y010680D01*
X008100Y010180D01*
X008100Y007180D01*
X008600Y006680D01*
X007600Y006680D02*
X007100Y007180D01*
X007100Y010180D01*
X007350Y010680D01*
X005850Y010180D02*
X005850Y009430D01*
X006100Y009180D01*
X006100Y006680D01*
X005850Y010180D02*
X005350Y010680D01*
D21*
X015850Y007680D02*
X016350Y008180D01*
X016600Y008180D01*
X017100Y008180D01*
X015850Y007680D02*
X015850Y006680D01*
X016100Y002180D02*
X017100Y002180D01*
M02*
