G75*
%MOIN*%
%OFA0B0*%
%FSLAX24Y24*%
%IPPOS*%
%LPD*%
%AMOC8*
5,1,8,0,0,1.08239X$1,22.5*
%
%ADD10C,0.0160*%
%ADD11R,0.0005X0.0020*%
%ADD12R,0.0005X0.0075*%
%ADD13R,0.0005X0.0150*%
%ADD14R,0.0005X0.0195*%
%ADD15R,0.0005X0.0230*%
%ADD16R,0.0005X0.0265*%
%ADD17R,0.0005X0.0290*%
%ADD18R,0.0005X0.0310*%
%ADD19R,0.0005X0.0330*%
%ADD20R,0.0005X0.0340*%
%ADD21R,0.0005X0.0360*%
%ADD22R,0.0005X0.0375*%
%ADD23R,0.0005X0.0390*%
%ADD24R,0.0005X0.0405*%
%ADD25R,0.0005X0.0410*%
%ADD26R,0.0005X0.0425*%
%ADD27R,0.0005X0.0435*%
%ADD28R,0.0005X0.0445*%
%ADD29R,0.0005X0.0455*%
%ADD30R,0.0005X0.0460*%
%ADD31R,0.0005X0.0475*%
%ADD32R,0.0005X0.0480*%
%ADD33R,0.0005X0.0490*%
%ADD34R,0.0005X0.0210*%
%ADD35R,0.0005X0.0005*%
%ADD36R,0.0005X0.0200*%
%ADD37R,0.0005X0.0190*%
%ADD38R,0.0005X0.0180*%
%ADD39R,0.0005X0.0170*%
%ADD40R,0.0005X0.0165*%
%ADD41R,0.0005X0.0160*%
%ADD42R,0.0005X0.0155*%
%ADD43R,0.0005X0.0145*%
%ADD44R,0.0005X0.0140*%
%ADD45R,0.0005X0.0135*%
%ADD46R,0.0005X0.0130*%
%ADD47R,0.0005X0.0125*%
%ADD48R,0.0005X0.0120*%
%ADD49R,0.0005X0.0115*%
%ADD50R,0.0005X0.0110*%
%ADD51R,0.0005X0.0105*%
%ADD52R,0.0005X0.0100*%
%ADD53R,0.0005X0.0095*%
%ADD54R,0.0005X0.0085*%
%ADD55R,0.0005X0.0080*%
%ADD56R,0.0005X0.0055*%
%ADD57R,0.0005X0.0025*%
%ADD58R,0.0005X0.0060*%
%ADD59R,0.0005X0.0065*%
%ADD60R,0.0005X0.0015*%
%ADD61R,0.0005X0.0045*%
%ADD62R,0.0005X0.0050*%
%ADD63R,0.0005X0.0205*%
%ADD64R,0.0005X0.0070*%
%ADD65R,0.0005X0.0225*%
%ADD66R,0.0005X0.0090*%
%ADD67R,0.0005X0.0220*%
%ADD68R,0.0005X0.0215*%
%ADD69R,0.0005X0.0240*%
%ADD70R,0.0005X0.0255*%
%ADD71R,0.0005X0.0245*%
%ADD72R,0.0005X0.0250*%
%ADD73R,0.0005X0.0275*%
%ADD74R,0.0005X0.0260*%
%ADD75R,0.0005X0.0270*%
%ADD76R,0.0005X0.0280*%
%ADD77R,0.0005X0.0285*%
%ADD78R,0.0005X0.0300*%
%ADD79R,0.0005X0.0305*%
%ADD80R,0.0005X0.0295*%
%ADD81R,0.0005X0.0325*%
%ADD82R,0.0005X0.0320*%
%ADD83R,0.0005X0.0315*%
%ADD84R,0.0005X0.0470*%
%ADD85R,0.0005X0.0350*%
%ADD86R,0.0005X0.0345*%
%ADD87R,0.0005X0.0365*%
%ADD88R,0.0005X0.0355*%
%ADD89R,0.0005X0.0485*%
%ADD90R,0.0005X0.0380*%
%ADD91R,0.0005X0.0370*%
%ADD92R,0.0005X0.0400*%
%ADD93R,0.0005X0.0395*%
%ADD94R,0.0005X0.0495*%
%ADD95R,0.0005X0.0415*%
%ADD96R,0.0005X0.0500*%
%ADD97R,0.0005X0.0505*%
%ADD98R,0.0005X0.0430*%
%ADD99R,0.0005X0.0420*%
%ADD100R,0.0005X0.0510*%
%ADD101R,0.0005X0.0450*%
%ADD102R,0.0005X0.0010*%
%ADD103R,0.0005X0.0175*%
%ADD104R,0.0005X0.0185*%
%ADD105R,0.0005X0.0235*%
%ADD106R,0.0005X0.0575*%
%ADD107R,0.0005X0.0570*%
%ADD108R,0.0005X0.0585*%
%ADD109R,0.0005X0.0595*%
%ADD110R,0.0005X0.0600*%
%ADD111R,0.0005X0.0605*%
%ADD112R,0.0005X0.0610*%
%ADD113R,0.0005X0.0615*%
%ADD114R,0.0005X0.0440*%
%ADD115R,0.0005X0.0385*%
%ADD116R,0.0005X0.0030*%
%ADD117R,0.0005X0.0515*%
%ADD118R,0.0005X0.0465*%
%ADD119R,0.0005X0.0335*%
%ADD120R,0.0005X0.0035*%
%ADD121R,0.0005X0.0040*%
%ADD122C,0.0080*%
%ADD123C,0.0060*%
%ADD124C,0.0100*%
%ADD125C,0.0059*%
D10*
X001100Y001180D02*
X002100Y001180D01*
X014100Y001180D02*
X015100Y002180D01*
X015100Y008180D01*
X014100Y009180D01*
X002100Y009180D02*
X001100Y009180D01*
X001100Y008680D01*
D11*
X000915Y006918D03*
X001360Y001773D03*
D12*
X001360Y001825D03*
X000280Y003560D03*
X000925Y004180D03*
X000685Y005365D03*
X001120Y006165D03*
D13*
X000995Y005933D03*
X000630Y005933D03*
X000625Y005933D03*
X000660Y006188D03*
X000510Y006353D03*
X000625Y006538D03*
X000620Y006543D03*
X000990Y006538D03*
X000995Y006543D03*
X001000Y006893D03*
X000995Y006898D03*
X000625Y006893D03*
X000625Y005583D03*
X000630Y005578D03*
X000995Y005583D03*
X001000Y005348D03*
X000995Y004998D03*
X000990Y004993D03*
X000620Y004998D03*
X000675Y004388D03*
X000630Y004153D03*
X000625Y004148D03*
X000995Y004153D03*
X001000Y004148D03*
X000990Y003793D03*
X000620Y003798D03*
X000665Y003543D03*
X000965Y003543D03*
X000995Y003158D03*
X000990Y003153D03*
X000630Y003148D03*
X000620Y003158D03*
X000510Y002993D03*
X000660Y002828D03*
X000980Y002603D03*
X001015Y002253D03*
X000855Y002243D03*
X000660Y002028D03*
X001225Y002003D03*
X001355Y001813D03*
X000995Y001643D03*
X000990Y001643D03*
X000620Y001648D03*
D14*
X001120Y001820D03*
X001350Y001810D03*
X001000Y002010D03*
X000620Y002005D03*
X000595Y002295D03*
X000500Y002430D03*
X000835Y002580D03*
X000625Y002845D03*
X000530Y002980D03*
X001025Y003205D03*
X000625Y003520D03*
X000595Y003835D03*
X001025Y003840D03*
X001025Y005040D03*
X000595Y005300D03*
X001025Y005625D03*
X001120Y005755D03*
X001025Y005890D03*
X000500Y005755D03*
D15*
X000505Y006713D03*
X001115Y006723D03*
X000510Y004613D03*
X000505Y003968D03*
X001115Y002393D03*
X001020Y001988D03*
X001345Y001813D03*
D16*
X001340Y001810D03*
X001105Y001820D03*
X000515Y002430D03*
X000520Y004610D03*
X000515Y005755D03*
D17*
X000595Y006258D03*
X000520Y006713D03*
X001100Y006723D03*
X001100Y005178D03*
X001100Y003978D03*
X000520Y003968D03*
X000595Y002898D03*
X001100Y002398D03*
X001335Y001813D03*
D18*
X001330Y001813D03*
X001090Y001823D03*
X000530Y001813D03*
X001095Y002398D03*
X000580Y002908D03*
X000530Y003323D03*
X001090Y003333D03*
X001095Y003978D03*
X000525Y005173D03*
X000585Y006263D03*
X001095Y006723D03*
D19*
X000545Y006273D03*
X000535Y005758D03*
X000530Y005173D03*
X001085Y003333D03*
X001325Y001813D03*
D20*
X001320Y001813D03*
X000540Y001813D03*
X001085Y002403D03*
X001080Y003333D03*
X001085Y003978D03*
X000545Y004603D03*
X000535Y005173D03*
X001085Y005178D03*
X000540Y005758D03*
X001085Y006723D03*
D21*
X001315Y001813D03*
D22*
X001310Y001815D03*
X000550Y002420D03*
X000550Y003970D03*
X001065Y005755D03*
X000550Y006715D03*
D23*
X001065Y006723D03*
X000560Y005758D03*
X001065Y005178D03*
X001065Y003978D03*
X000555Y003968D03*
X000555Y002418D03*
X001305Y001813D03*
D24*
X001300Y001815D03*
X000755Y002475D03*
X000565Y005755D03*
X001055Y005755D03*
D25*
X001055Y005178D03*
X001055Y003978D03*
X000565Y003968D03*
X001295Y001813D03*
X000565Y006713D03*
D26*
X001050Y006720D03*
X001050Y005175D03*
X001045Y005175D03*
X001050Y003975D03*
X000765Y002465D03*
X000575Y002415D03*
X001290Y001815D03*
D27*
X001285Y001815D03*
X000770Y002460D03*
X000585Y002415D03*
X000580Y003970D03*
X000580Y005755D03*
X001040Y005755D03*
X000580Y006715D03*
D28*
X000585Y006715D03*
X001040Y006720D03*
X001035Y005755D03*
X001030Y005755D03*
X000590Y005755D03*
X000585Y005170D03*
X001035Y005175D03*
X001040Y005175D03*
X001040Y003975D03*
X000585Y003970D03*
X001280Y001815D03*
D29*
X001275Y001815D03*
X001080Y001875D03*
X001075Y001875D03*
X000785Y002450D03*
X000590Y003970D03*
X001030Y003975D03*
X001030Y005175D03*
X000590Y005170D03*
X001030Y006720D03*
D30*
X000790Y002448D03*
X001270Y001813D03*
D31*
X001265Y001815D03*
X001075Y002455D03*
X001070Y002455D03*
X000805Y002440D03*
X000800Y002440D03*
X000570Y004550D03*
D32*
X000575Y004553D03*
X000580Y004553D03*
X001075Y003393D03*
X000560Y003373D03*
X000555Y003378D03*
X000810Y002438D03*
X001055Y001863D03*
X001060Y001863D03*
X001260Y001813D03*
X000555Y001863D03*
D33*
X000560Y001863D03*
X000565Y001858D03*
X000570Y001858D03*
X001045Y001858D03*
X001050Y001858D03*
X001255Y001813D03*
X001050Y002443D03*
X001055Y002448D03*
X000825Y002433D03*
X000820Y002433D03*
X000570Y003368D03*
X001060Y003383D03*
X001065Y003388D03*
D34*
X001010Y003508D03*
X000615Y003513D03*
X000540Y002973D03*
X000615Y002858D03*
X000835Y002283D03*
X001250Y001673D03*
X000500Y005173D03*
X000615Y006218D03*
D35*
X000485Y005795D03*
X000595Y005725D03*
X001025Y005775D03*
X001025Y005785D03*
X001135Y005790D03*
X001135Y005720D03*
X000700Y005360D03*
X001025Y005200D03*
X001025Y005145D03*
X001135Y005210D03*
X000595Y005135D03*
X000595Y004595D03*
X001135Y004010D03*
X001135Y003935D03*
X001025Y003945D03*
X000485Y004005D03*
X000485Y003360D03*
X000595Y003345D03*
X000595Y003295D03*
X001135Y003370D03*
X000490Y002830D03*
X000730Y002525D03*
X000840Y002510D03*
X000835Y002465D03*
X000835Y002395D03*
X000725Y002380D03*
X001025Y002405D03*
X001135Y002340D03*
X000850Y002555D03*
X000595Y001840D03*
X000595Y001785D03*
X001130Y001760D03*
X001135Y001785D03*
X001250Y001845D03*
X001250Y001855D03*
X001135Y006680D03*
X001135Y006760D03*
X000920Y006950D03*
X000595Y006740D03*
X000595Y006680D03*
X000485Y006675D03*
D36*
X000595Y006848D03*
X001025Y006588D03*
X001120Y006718D03*
X000535Y006338D03*
X000620Y006213D03*
X000595Y005888D03*
X001025Y005308D03*
X000630Y004413D03*
X000500Y003968D03*
X001120Y003978D03*
X000620Y003513D03*
X000535Y002978D03*
X000620Y002853D03*
X001010Y002578D03*
X001005Y002003D03*
X001250Y001963D03*
D37*
X001245Y001658D03*
X001025Y001688D03*
X000595Y001683D03*
X000500Y001813D03*
X001005Y002583D03*
X001120Y003333D03*
X001000Y003518D03*
X000500Y003323D03*
X000635Y004408D03*
X000500Y004618D03*
X000595Y005033D03*
X000595Y005623D03*
X000630Y006203D03*
X000625Y006208D03*
X000530Y006343D03*
X000595Y006578D03*
X000600Y006858D03*
D38*
X000600Y006568D03*
X000525Y006343D03*
X000635Y006203D03*
X000600Y005898D03*
X001020Y005898D03*
X001020Y005613D03*
X000600Y005313D03*
X000495Y005173D03*
X000600Y005023D03*
X000600Y004113D03*
X000600Y003823D03*
X000635Y003528D03*
X000630Y003523D03*
X000990Y003528D03*
X000995Y003523D03*
X001015Y003183D03*
X000600Y003183D03*
X000525Y002983D03*
X000635Y002843D03*
X000595Y002553D03*
X001000Y002588D03*
X000840Y002268D03*
X000995Y002013D03*
X001245Y001973D03*
X001240Y001648D03*
X000600Y001673D03*
X000630Y002013D03*
D39*
X000645Y002023D03*
X000990Y002018D03*
X001240Y001983D03*
X001010Y001663D03*
X000845Y002258D03*
X000605Y002283D03*
X000995Y002593D03*
X000645Y002833D03*
X000640Y002838D03*
X000605Y003178D03*
X000640Y003528D03*
X000645Y003533D03*
X001015Y003823D03*
X001125Y003973D03*
X001015Y004128D03*
X000610Y004128D03*
X000495Y003968D03*
X000655Y004398D03*
X001015Y005603D03*
X001015Y005908D03*
X000640Y006198D03*
X000495Y006713D03*
X001015Y006873D03*
D40*
X001010Y006880D03*
X001125Y006720D03*
X001010Y006560D03*
X000605Y006560D03*
X000515Y006350D03*
X000645Y006195D03*
X000650Y006190D03*
X000610Y005915D03*
X001010Y005915D03*
X001010Y005600D03*
X000610Y005600D03*
X000605Y005320D03*
X001010Y005335D03*
X001125Y005175D03*
X001010Y005015D03*
X000605Y005015D03*
X001010Y004135D03*
X001010Y003815D03*
X000605Y003815D03*
X000980Y003535D03*
X000985Y003530D03*
X000495Y003325D03*
X001010Y003175D03*
X000600Y002560D03*
X000495Y002435D03*
X000730Y002435D03*
X001125Y002385D03*
X000640Y002020D03*
X000495Y001815D03*
X000605Y001665D03*
X001235Y001640D03*
X001235Y001990D03*
X000610Y006875D03*
D41*
X000615Y006883D03*
X001005Y006888D03*
X001005Y006553D03*
X000615Y006548D03*
X000610Y006553D03*
X000615Y005923D03*
X001005Y005923D03*
X001125Y005758D03*
X001005Y005593D03*
X000615Y005593D03*
X000495Y005758D03*
X000610Y005328D03*
X001005Y005338D03*
X001005Y005008D03*
X001000Y005003D03*
X000615Y005003D03*
X000610Y005008D03*
X000495Y004618D03*
X000660Y004393D03*
X000665Y004393D03*
X000615Y004138D03*
X001005Y004143D03*
X001005Y003808D03*
X000610Y003808D03*
X000655Y003538D03*
X000975Y003538D03*
X001125Y003333D03*
X001005Y003168D03*
X001000Y003163D03*
X000615Y003163D03*
X000610Y003168D03*
X000515Y002993D03*
X000650Y002833D03*
X000840Y002598D03*
X000990Y002598D03*
X001020Y002258D03*
X000980Y002023D03*
X001125Y001823D03*
X001005Y001658D03*
X001230Y001633D03*
X000610Y001658D03*
D42*
X000615Y001650D03*
X001000Y001650D03*
X001225Y001625D03*
X001230Y001995D03*
X000975Y002025D03*
X000970Y002030D03*
X000850Y002250D03*
X000610Y002275D03*
X000650Y002025D03*
X000655Y002025D03*
X000605Y002570D03*
X000985Y002600D03*
X000665Y002825D03*
X000655Y002830D03*
X000650Y003535D03*
X000615Y003805D03*
X001000Y003800D03*
X000620Y004140D03*
X000670Y004390D03*
X000595Y004725D03*
X000615Y005335D03*
X000620Y005585D03*
X001000Y005585D03*
X001000Y005925D03*
X000620Y005925D03*
X000665Y006185D03*
X000655Y006190D03*
X001000Y006545D03*
X000620Y006885D03*
D43*
X000630Y006900D03*
X000635Y006900D03*
X000640Y006905D03*
X000630Y006530D03*
X000985Y006530D03*
X000985Y005940D03*
X000990Y005935D03*
X000640Y005945D03*
X000635Y005940D03*
X000635Y005570D03*
X000985Y005570D03*
X000990Y005575D03*
X000995Y005350D03*
X000625Y005345D03*
X000620Y005340D03*
X000625Y004990D03*
X000630Y004985D03*
X000985Y004985D03*
X000685Y004385D03*
X000680Y004385D03*
X000640Y004160D03*
X000625Y003790D03*
X000630Y003785D03*
X000985Y003785D03*
X000995Y003795D03*
X000970Y003540D03*
X000660Y003540D03*
X000625Y003150D03*
X000670Y002825D03*
X000615Y002580D03*
X000610Y002575D03*
X000965Y002030D03*
X000985Y001635D03*
X001215Y001615D03*
X001220Y001620D03*
X000630Y001635D03*
X000625Y001640D03*
D44*
X000635Y001633D03*
X000640Y001628D03*
X000975Y001628D03*
X000980Y001633D03*
X001205Y001608D03*
X001220Y002008D03*
X001215Y002013D03*
X000960Y002033D03*
X000950Y002038D03*
X001010Y002243D03*
X000860Y002238D03*
X000615Y002273D03*
X000675Y002038D03*
X000670Y002033D03*
X000665Y002033D03*
X000620Y002583D03*
X000970Y002608D03*
X000975Y002608D03*
X000685Y002818D03*
X000675Y002823D03*
X000640Y003138D03*
X000635Y003143D03*
X000975Y003138D03*
X000980Y003143D03*
X000985Y003148D03*
X000960Y003543D03*
X000955Y003548D03*
X000670Y003543D03*
X000640Y003778D03*
X000635Y003783D03*
X000975Y003778D03*
X000980Y003783D03*
X000990Y004158D03*
X000985Y004163D03*
X000655Y004173D03*
X000635Y004158D03*
X000690Y004383D03*
X000600Y004733D03*
X000645Y004973D03*
X000640Y004978D03*
X000635Y004983D03*
X000970Y004973D03*
X000975Y004978D03*
X000980Y004983D03*
X000975Y005563D03*
X000980Y005568D03*
X000645Y005563D03*
X000640Y005568D03*
X000650Y005953D03*
X000975Y005948D03*
X000980Y005948D03*
X000685Y006178D03*
X000675Y006183D03*
X000670Y006183D03*
X000640Y006523D03*
X000635Y006528D03*
X000975Y006523D03*
X000980Y006528D03*
X000990Y006903D03*
X000985Y006908D03*
X000655Y006918D03*
D45*
X000660Y006920D03*
X000650Y006915D03*
X000645Y006910D03*
X000980Y006910D03*
X000970Y006520D03*
X000965Y006515D03*
X000960Y006510D03*
X000660Y006510D03*
X000650Y006515D03*
X000645Y006520D03*
X000680Y006180D03*
X000660Y005960D03*
X000645Y005950D03*
X000955Y005965D03*
X000960Y005960D03*
X000965Y005955D03*
X000970Y005955D03*
X000970Y005560D03*
X000965Y005555D03*
X000960Y005550D03*
X000655Y005555D03*
X000650Y005560D03*
X000635Y005355D03*
X000630Y005350D03*
X000490Y005170D03*
X000985Y005360D03*
X000990Y005355D03*
X000965Y004970D03*
X000650Y004970D03*
X000605Y004740D03*
X000695Y004380D03*
X000660Y004175D03*
X000650Y004170D03*
X000645Y004165D03*
X000645Y003775D03*
X000650Y003770D03*
X000660Y003765D03*
X000960Y003765D03*
X000965Y003770D03*
X000970Y003775D03*
X000675Y003550D03*
X000645Y003135D03*
X000650Y003130D03*
X000955Y003125D03*
X000965Y003130D03*
X000970Y003135D03*
X000680Y002820D03*
X000625Y002590D03*
X000845Y002610D03*
X000865Y002235D03*
X001000Y002235D03*
X001005Y002240D03*
X000955Y002035D03*
X001205Y002020D03*
X001210Y001610D03*
X000970Y001625D03*
X000965Y001620D03*
X000960Y001615D03*
X000655Y001615D03*
X000650Y001620D03*
X000645Y001620D03*
D46*
X000660Y001613D03*
X000670Y001608D03*
X000945Y001608D03*
X000955Y001613D03*
X001195Y001603D03*
X001200Y001603D03*
X001210Y002018D03*
X001200Y002023D03*
X000945Y002038D03*
X000995Y002233D03*
X000870Y002228D03*
X000620Y002268D03*
X000680Y002038D03*
X000630Y002593D03*
X000640Y002598D03*
X000960Y002613D03*
X000965Y002613D03*
X000705Y002813D03*
X000695Y002818D03*
X000690Y002818D03*
X000505Y002998D03*
X000655Y003128D03*
X000660Y003123D03*
X000665Y003123D03*
X000670Y003118D03*
X000945Y003118D03*
X000960Y003128D03*
X000945Y003553D03*
X000935Y003753D03*
X000945Y003758D03*
X000955Y003763D03*
X000670Y003758D03*
X000655Y003768D03*
X000685Y003553D03*
X000680Y003548D03*
X000670Y004183D03*
X000680Y004188D03*
X000700Y004378D03*
X000705Y004378D03*
X000710Y004378D03*
X000975Y004168D03*
X000980Y004168D03*
X000610Y004743D03*
X000660Y004963D03*
X000665Y004963D03*
X000655Y004968D03*
X000945Y004958D03*
X000950Y004963D03*
X000955Y004963D03*
X000960Y004968D03*
X000980Y005363D03*
X000640Y005358D03*
X000675Y005543D03*
X000665Y005548D03*
X000660Y005553D03*
X000945Y005543D03*
X000950Y005548D03*
X000955Y005548D03*
X000950Y005968D03*
X000680Y005973D03*
X000670Y005968D03*
X000665Y005963D03*
X000655Y005958D03*
X000705Y006173D03*
X000695Y006178D03*
X000690Y006178D03*
X000505Y006358D03*
X000655Y006513D03*
X000665Y006508D03*
X000945Y006503D03*
X000950Y006508D03*
X000955Y006508D03*
X000680Y006933D03*
X000670Y006928D03*
D47*
X000675Y006930D03*
X000665Y006925D03*
X000685Y006935D03*
X000695Y006940D03*
X000965Y006920D03*
X000970Y006915D03*
X000975Y006915D03*
X001130Y006720D03*
X000940Y006500D03*
X000930Y006495D03*
X000920Y006490D03*
X000685Y006495D03*
X000675Y006500D03*
X000670Y006500D03*
X000490Y006710D03*
X000700Y006175D03*
X000695Y005980D03*
X000685Y005975D03*
X000675Y005970D03*
X000925Y005980D03*
X000935Y005975D03*
X000945Y005970D03*
X000490Y005755D03*
X000670Y005545D03*
X000680Y005540D03*
X000685Y005535D03*
X000690Y005535D03*
X000700Y005530D03*
X000920Y005530D03*
X000930Y005535D03*
X000935Y005535D03*
X000940Y005540D03*
X000975Y005365D03*
X001130Y005175D03*
X000940Y004955D03*
X000935Y004950D03*
X000930Y004950D03*
X000695Y004945D03*
X000685Y004950D03*
X000675Y004955D03*
X000670Y004955D03*
X000620Y004750D03*
X000615Y004745D03*
X000715Y004375D03*
X000695Y004195D03*
X000685Y004190D03*
X000675Y004185D03*
X000665Y004180D03*
X000965Y004175D03*
X001130Y003975D03*
X000950Y003760D03*
X000940Y003755D03*
X000930Y003750D03*
X000920Y003745D03*
X000950Y003550D03*
X000695Y003555D03*
X000690Y003550D03*
X000685Y003750D03*
X000675Y003755D03*
X000665Y003760D03*
X000490Y003965D03*
X000675Y003115D03*
X000685Y003110D03*
X000695Y003105D03*
X000920Y003105D03*
X000930Y003110D03*
X000935Y003110D03*
X000940Y003115D03*
X000950Y003120D03*
X000700Y002815D03*
X000635Y002595D03*
X000490Y002430D03*
X000955Y002615D03*
X001130Y002385D03*
X000990Y002230D03*
X000875Y002225D03*
X000940Y002040D03*
X000690Y002040D03*
X000685Y002040D03*
X001190Y002030D03*
X001195Y002025D03*
X000950Y001610D03*
X000940Y001605D03*
X000935Y001600D03*
X000930Y001600D03*
X000695Y001595D03*
X000680Y001600D03*
X000675Y001605D03*
X000665Y001610D03*
X000645Y005360D03*
D48*
X000650Y005363D03*
X000655Y005363D03*
X000965Y005373D03*
X000970Y005368D03*
X000905Y005523D03*
X000900Y005523D03*
X000910Y005528D03*
X000915Y005528D03*
X000925Y005533D03*
X000890Y005518D03*
X000720Y005523D03*
X000715Y005523D03*
X000710Y005528D03*
X000705Y005528D03*
X000695Y005533D03*
X001130Y005758D03*
X000940Y005973D03*
X000930Y005978D03*
X000920Y005983D03*
X000915Y005983D03*
X000910Y005988D03*
X000895Y005993D03*
X000715Y005988D03*
X000705Y005983D03*
X000700Y005983D03*
X000690Y005978D03*
X000725Y006168D03*
X000715Y006173D03*
X000710Y006173D03*
X000715Y006483D03*
X000705Y006488D03*
X000700Y006488D03*
X000695Y006493D03*
X000690Y006493D03*
X000680Y006498D03*
X000900Y006483D03*
X000905Y006483D03*
X000915Y006488D03*
X000925Y006493D03*
X000935Y006498D03*
X000715Y006948D03*
X000710Y006948D03*
X000705Y006943D03*
X000700Y006943D03*
X000690Y006938D03*
X000680Y004953D03*
X000690Y004948D03*
X000700Y004943D03*
X000715Y004938D03*
X000730Y004933D03*
X000900Y004938D03*
X000905Y004938D03*
X000915Y004943D03*
X000920Y004943D03*
X000925Y004948D03*
X000635Y004758D03*
X000630Y004753D03*
X000625Y004753D03*
X000490Y004618D03*
X000720Y004373D03*
X000725Y004373D03*
X000715Y004203D03*
X000710Y004203D03*
X000705Y004198D03*
X000700Y004198D03*
X000690Y004193D03*
X000970Y004173D03*
X000925Y003748D03*
X000915Y003743D03*
X000905Y003738D03*
X000900Y003738D03*
X000930Y003558D03*
X000935Y003553D03*
X000940Y003553D03*
X001080Y003573D03*
X000705Y003558D03*
X000715Y003738D03*
X000705Y003743D03*
X000700Y003743D03*
X000695Y003748D03*
X000690Y003748D03*
X000680Y003753D03*
X001130Y003333D03*
X000925Y003108D03*
X000915Y003103D03*
X000910Y003103D03*
X000905Y003098D03*
X000900Y003098D03*
X000730Y003093D03*
X000715Y003098D03*
X000700Y003103D03*
X000690Y003108D03*
X000680Y003113D03*
X000710Y002813D03*
X000715Y002813D03*
X000720Y002813D03*
X000725Y002808D03*
X000675Y002613D03*
X000660Y002608D03*
X000650Y002603D03*
X000645Y002603D03*
X000945Y002618D03*
X000950Y002618D03*
X000985Y002228D03*
X000980Y002223D03*
X000975Y002223D03*
X000890Y002218D03*
X000880Y002223D03*
X000925Y002043D03*
X000930Y002043D03*
X000935Y002043D03*
X000785Y002048D03*
X000700Y002043D03*
X000695Y002043D03*
X000490Y001813D03*
X000685Y001598D03*
X000690Y001598D03*
X000700Y001593D03*
X000705Y001593D03*
X000710Y001588D03*
X000890Y001583D03*
X000900Y001588D03*
X000905Y001588D03*
X000915Y001593D03*
X000920Y001593D03*
X000925Y001598D03*
X001185Y001598D03*
X001190Y001598D03*
X001185Y002033D03*
X001180Y002033D03*
X001170Y002038D03*
D49*
X001165Y002040D03*
X001160Y002040D03*
X001145Y002045D03*
X001140Y002045D03*
X001130Y002045D03*
X001090Y002050D03*
X001175Y002035D03*
X000920Y002045D03*
X000915Y002050D03*
X000885Y002050D03*
X000850Y002050D03*
X000830Y002050D03*
X000800Y002050D03*
X000760Y002050D03*
X000745Y002050D03*
X000730Y002050D03*
X000710Y002050D03*
X000705Y002045D03*
X000885Y002220D03*
X000895Y002215D03*
X000900Y002215D03*
X000915Y002210D03*
X000925Y002210D03*
X000955Y002215D03*
X000960Y002215D03*
X000965Y002220D03*
X000970Y002220D03*
X000625Y002265D03*
X000655Y002605D03*
X000665Y002610D03*
X000670Y002610D03*
X000685Y002615D03*
X000690Y002615D03*
X000705Y002620D03*
X000715Y002620D03*
X000725Y002620D03*
X000730Y002620D03*
X000850Y002620D03*
X000860Y002620D03*
X000870Y002620D03*
X000880Y002620D03*
X000890Y002620D03*
X000900Y002620D03*
X000910Y002620D03*
X000920Y002620D03*
X000930Y002620D03*
X000940Y002620D03*
X001085Y002635D03*
X001075Y002805D03*
X001045Y002805D03*
X001025Y002805D03*
X001005Y002805D03*
X000985Y002805D03*
X000965Y002805D03*
X000945Y002805D03*
X000925Y002805D03*
X000905Y002805D03*
X000885Y002805D03*
X000865Y002805D03*
X000845Y002805D03*
X000825Y002805D03*
X000805Y002805D03*
X000785Y002805D03*
X000765Y002805D03*
X000745Y002805D03*
X000730Y002810D03*
X000540Y002805D03*
X000705Y003100D03*
X000710Y003100D03*
X000720Y003095D03*
X000725Y003095D03*
X000735Y003090D03*
X000740Y003090D03*
X000760Y003085D03*
X000765Y003085D03*
X000770Y003085D03*
X000795Y003080D03*
X000805Y003080D03*
X000810Y003080D03*
X000830Y003080D03*
X000855Y003085D03*
X000860Y003085D03*
X000875Y003090D03*
X000880Y003090D03*
X000885Y003090D03*
X000890Y003095D03*
X000895Y003095D03*
X000490Y003325D03*
X000485Y003560D03*
X000495Y003560D03*
X000505Y003560D03*
X000515Y003560D03*
X000520Y003560D03*
X000530Y003560D03*
X000470Y003560D03*
X000460Y003560D03*
X000455Y003560D03*
X000445Y003560D03*
X000435Y003560D03*
X000425Y003560D03*
X000415Y003560D03*
X000405Y003560D03*
X000395Y003560D03*
X000385Y003560D03*
X000370Y003560D03*
X000360Y003560D03*
X000355Y003560D03*
X000345Y003560D03*
X000335Y003560D03*
X000325Y003560D03*
X000700Y003555D03*
X000715Y003560D03*
X000725Y003560D03*
X000735Y003560D03*
X000740Y003560D03*
X000750Y003560D03*
X000765Y003560D03*
X000775Y003560D03*
X000785Y003560D03*
X000795Y003560D03*
X000800Y003560D03*
X000815Y003560D03*
X000825Y003560D03*
X000835Y003560D03*
X000845Y003560D03*
X000855Y003560D03*
X000860Y003560D03*
X000870Y003560D03*
X000885Y003560D03*
X000895Y003560D03*
X000905Y003560D03*
X000915Y003560D03*
X000920Y003560D03*
X000925Y003555D03*
X001085Y003575D03*
X000910Y003740D03*
X000895Y003735D03*
X000890Y003735D03*
X000885Y003730D03*
X000880Y003730D03*
X000875Y003730D03*
X000755Y003725D03*
X000745Y003730D03*
X000740Y003730D03*
X000735Y003730D03*
X000730Y003735D03*
X000725Y003735D03*
X000720Y003735D03*
X000710Y003740D03*
X000720Y004205D03*
X000725Y004205D03*
X000730Y004210D03*
X000735Y004210D03*
X000740Y004210D03*
X000745Y004215D03*
X000755Y004215D03*
X000750Y004370D03*
X000740Y004370D03*
X000735Y004370D03*
X000730Y004370D03*
X000765Y004370D03*
X000775Y004370D03*
X000785Y004370D03*
X000805Y004370D03*
X000835Y004370D03*
X000840Y004370D03*
X000855Y004370D03*
X000865Y004370D03*
X000870Y004370D03*
X000885Y004370D03*
X000895Y004370D03*
X000900Y004370D03*
X000915Y004370D03*
X000925Y004370D03*
X000930Y004370D03*
X000940Y004370D03*
X000955Y004370D03*
X000965Y004370D03*
X000970Y004370D03*
X000980Y004370D03*
X000995Y004370D03*
X001005Y004370D03*
X001010Y004370D03*
X001020Y004370D03*
X001035Y004370D03*
X001045Y004370D03*
X001050Y004370D03*
X001060Y004370D03*
X001075Y004370D03*
X001080Y004370D03*
X000960Y004175D03*
X000655Y004760D03*
X000650Y004760D03*
X000645Y004760D03*
X000640Y004755D03*
X000665Y004765D03*
X000670Y004765D03*
X000680Y004765D03*
X000695Y004770D03*
X000700Y004770D03*
X000715Y004770D03*
X000720Y004770D03*
X000730Y004770D03*
X000740Y004770D03*
X000755Y004925D03*
X000760Y004925D03*
X000765Y004925D03*
X000740Y004930D03*
X000735Y004930D03*
X000725Y004935D03*
X000720Y004935D03*
X000710Y004940D03*
X000705Y004940D03*
X000795Y004920D03*
X000805Y004920D03*
X000810Y004920D03*
X000825Y004920D03*
X000830Y004920D03*
X000855Y004925D03*
X000860Y004925D03*
X000865Y004925D03*
X000875Y004930D03*
X000880Y004930D03*
X000885Y004930D03*
X000890Y004935D03*
X000895Y004935D03*
X000910Y004940D03*
X000960Y005375D03*
X000860Y005510D03*
X000855Y005510D03*
X000850Y005510D03*
X000845Y005510D03*
X000825Y005505D03*
X000810Y005505D03*
X000800Y005505D03*
X000780Y005505D03*
X000770Y005510D03*
X000765Y005510D03*
X000760Y005510D03*
X000750Y005515D03*
X000745Y005515D03*
X000740Y005515D03*
X000735Y005515D03*
X000730Y005520D03*
X000725Y005520D03*
X000870Y005515D03*
X000875Y005515D03*
X000880Y005515D03*
X000885Y005520D03*
X000895Y005520D03*
X000660Y005365D03*
X000710Y005985D03*
X000720Y005990D03*
X000725Y005990D03*
X000730Y005995D03*
X000735Y005995D03*
X000740Y005995D03*
X000750Y006000D03*
X000755Y006000D03*
X000775Y006005D03*
X000780Y006005D03*
X000795Y006005D03*
X000800Y006005D03*
X000810Y006005D03*
X000820Y006005D03*
X000830Y006005D03*
X000840Y006005D03*
X000845Y006005D03*
X000860Y006000D03*
X000865Y006000D03*
X000870Y006000D03*
X000880Y005995D03*
X000885Y005995D03*
X000890Y005995D03*
X000900Y005990D03*
X000905Y005990D03*
X000910Y006165D03*
X000925Y006165D03*
X000945Y006165D03*
X000965Y006165D03*
X000985Y006165D03*
X001005Y006165D03*
X001025Y006165D03*
X001045Y006165D03*
X001065Y006165D03*
X000885Y006165D03*
X000865Y006165D03*
X000845Y006165D03*
X000825Y006165D03*
X000805Y006165D03*
X000785Y006165D03*
X000765Y006165D03*
X000745Y006165D03*
X000730Y006170D03*
X000720Y006170D03*
X000735Y006475D03*
X000740Y006475D03*
X000745Y006475D03*
X000730Y006480D03*
X000725Y006480D03*
X000720Y006480D03*
X000710Y006485D03*
X000870Y006470D03*
X000875Y006475D03*
X000880Y006475D03*
X000885Y006475D03*
X000890Y006480D03*
X000895Y006480D03*
X000910Y006485D03*
X000960Y006920D03*
X000755Y006960D03*
X000750Y006960D03*
X000740Y006955D03*
X000735Y006955D03*
X000730Y006955D03*
X000725Y006950D03*
X000720Y006950D03*
X001130Y001825D03*
X001180Y001595D03*
X000910Y001590D03*
X000895Y001585D03*
X000885Y001580D03*
X000880Y001580D03*
X000875Y001580D03*
X000865Y001575D03*
X000860Y001575D03*
X000855Y001575D03*
X000835Y001570D03*
X000825Y001570D03*
X000815Y001570D03*
X000805Y001570D03*
X000795Y001570D03*
X000785Y001570D03*
X000765Y001575D03*
X000755Y001575D03*
X000740Y001580D03*
X000735Y001580D03*
X000730Y001580D03*
X000725Y001585D03*
X000720Y001585D03*
X000715Y001585D03*
D50*
X000745Y001578D03*
X000750Y001578D03*
X000760Y001573D03*
X000770Y001573D03*
X000775Y001573D03*
X000780Y001573D03*
X000790Y001573D03*
X000800Y001573D03*
X000810Y001568D03*
X000820Y001573D03*
X000830Y001573D03*
X000840Y001573D03*
X000845Y001573D03*
X000850Y001573D03*
X000870Y001578D03*
X001175Y001593D03*
X001155Y002043D03*
X001150Y002043D03*
X001135Y002048D03*
X001125Y002048D03*
X001120Y002048D03*
X001115Y002048D03*
X001110Y002048D03*
X001105Y002048D03*
X001100Y002048D03*
X001095Y002048D03*
X001085Y002048D03*
X000910Y002048D03*
X000905Y002048D03*
X000900Y002048D03*
X000895Y002048D03*
X000890Y002048D03*
X000880Y002048D03*
X000875Y002048D03*
X000870Y002048D03*
X000865Y002048D03*
X000860Y002048D03*
X000855Y002048D03*
X000845Y002048D03*
X000840Y002048D03*
X000835Y002048D03*
X000825Y002048D03*
X000820Y002048D03*
X000815Y002048D03*
X000810Y002048D03*
X000805Y002048D03*
X000795Y002048D03*
X000790Y002048D03*
X000780Y002048D03*
X000775Y002048D03*
X000770Y002048D03*
X000765Y002048D03*
X000755Y002048D03*
X000750Y002048D03*
X000740Y002048D03*
X000735Y002048D03*
X000725Y002048D03*
X000720Y002048D03*
X000715Y002048D03*
X000540Y002048D03*
X000535Y002048D03*
X000530Y002048D03*
X000905Y002213D03*
X000910Y002213D03*
X000920Y002213D03*
X000930Y002213D03*
X000935Y002213D03*
X000940Y002213D03*
X000945Y002213D03*
X000950Y002213D03*
X000935Y002623D03*
X000925Y002623D03*
X000915Y002623D03*
X000905Y002623D03*
X000895Y002623D03*
X000885Y002623D03*
X000875Y002623D03*
X000865Y002623D03*
X000855Y002623D03*
X000735Y002623D03*
X000710Y002618D03*
X000700Y002618D03*
X000695Y002618D03*
X000680Y002613D03*
X000735Y002808D03*
X000740Y002808D03*
X000750Y002808D03*
X000755Y002808D03*
X000760Y002808D03*
X000770Y002808D03*
X000775Y002808D03*
X000780Y002808D03*
X000790Y002808D03*
X000795Y002808D03*
X000800Y002808D03*
X000810Y002808D03*
X000815Y002808D03*
X000820Y002808D03*
X000830Y002808D03*
X000835Y002808D03*
X000840Y002808D03*
X000850Y002808D03*
X000855Y002808D03*
X000860Y002808D03*
X000870Y002808D03*
X000875Y002808D03*
X000880Y002808D03*
X000890Y002808D03*
X000895Y002808D03*
X000900Y002808D03*
X000910Y002808D03*
X000915Y002808D03*
X000920Y002808D03*
X000930Y002808D03*
X000935Y002808D03*
X000940Y002808D03*
X000950Y002808D03*
X000955Y002808D03*
X000960Y002808D03*
X000970Y002808D03*
X000975Y002808D03*
X000980Y002808D03*
X000990Y002808D03*
X000995Y002808D03*
X001000Y002808D03*
X001010Y002808D03*
X001015Y002808D03*
X001020Y002808D03*
X001030Y002808D03*
X001035Y002808D03*
X001040Y002808D03*
X001050Y002808D03*
X001055Y002808D03*
X001060Y002808D03*
X001065Y002808D03*
X001070Y002808D03*
X001080Y002808D03*
X001085Y002808D03*
X001090Y002808D03*
X001090Y002638D03*
X001095Y002638D03*
X000535Y002808D03*
X000530Y002808D03*
X000525Y002808D03*
X000500Y003003D03*
X000745Y003088D03*
X000750Y003088D03*
X000755Y003088D03*
X000775Y003083D03*
X000780Y003083D03*
X000785Y003083D03*
X000790Y003083D03*
X000800Y003083D03*
X000815Y003083D03*
X000820Y003083D03*
X000825Y003083D03*
X000835Y003083D03*
X000840Y003083D03*
X000845Y003083D03*
X000850Y003083D03*
X000865Y003088D03*
X000870Y003088D03*
X000865Y003558D03*
X000875Y003558D03*
X000880Y003558D03*
X000890Y003558D03*
X000900Y003558D03*
X000910Y003558D03*
X000850Y003558D03*
X000840Y003558D03*
X000830Y003558D03*
X000820Y003558D03*
X000810Y003558D03*
X000805Y003558D03*
X000790Y003558D03*
X000780Y003558D03*
X000770Y003558D03*
X000760Y003558D03*
X000755Y003558D03*
X000745Y003558D03*
X000730Y003558D03*
X000720Y003558D03*
X000710Y003558D03*
X000540Y003558D03*
X000535Y003558D03*
X000525Y003558D03*
X000510Y003558D03*
X000500Y003558D03*
X000490Y003558D03*
X000480Y003558D03*
X000475Y003558D03*
X000465Y003558D03*
X000450Y003558D03*
X000440Y003558D03*
X000430Y003558D03*
X000420Y003558D03*
X000410Y003558D03*
X000400Y003558D03*
X000390Y003558D03*
X000380Y003558D03*
X000375Y003558D03*
X000365Y003558D03*
X000350Y003558D03*
X000340Y003558D03*
X000330Y003558D03*
X000320Y003558D03*
X000315Y003558D03*
X000310Y003558D03*
X000750Y003728D03*
X000870Y003728D03*
X001090Y003573D03*
X000955Y004178D03*
X000950Y004178D03*
X000950Y004368D03*
X000945Y004368D03*
X000935Y004368D03*
X000920Y004368D03*
X000910Y004368D03*
X000905Y004368D03*
X000890Y004368D03*
X000880Y004368D03*
X000875Y004368D03*
X000860Y004368D03*
X000850Y004368D03*
X000845Y004368D03*
X000830Y004368D03*
X000825Y004368D03*
X000820Y004368D03*
X000815Y004368D03*
X000810Y004368D03*
X000800Y004368D03*
X000795Y004368D03*
X000790Y004368D03*
X000780Y004368D03*
X000770Y004368D03*
X000760Y004368D03*
X000755Y004368D03*
X000745Y004368D03*
X000750Y004213D03*
X000550Y004368D03*
X000545Y004368D03*
X000540Y004368D03*
X000535Y004368D03*
X000530Y004368D03*
X000525Y004368D03*
X000960Y004368D03*
X000975Y004368D03*
X000985Y004368D03*
X000990Y004368D03*
X001000Y004368D03*
X001015Y004368D03*
X001025Y004368D03*
X001030Y004368D03*
X001040Y004368D03*
X001055Y004368D03*
X001065Y004368D03*
X001070Y004368D03*
X001085Y004368D03*
X001085Y004773D03*
X001080Y004773D03*
X001075Y004773D03*
X001070Y004773D03*
X001065Y004773D03*
X001060Y004773D03*
X001055Y004773D03*
X001050Y004773D03*
X001045Y004773D03*
X001040Y004773D03*
X001035Y004773D03*
X001030Y004773D03*
X001025Y004773D03*
X001020Y004773D03*
X001015Y004773D03*
X001010Y004773D03*
X001005Y004773D03*
X001000Y004773D03*
X000995Y004773D03*
X000990Y004773D03*
X000985Y004773D03*
X000980Y004773D03*
X000975Y004773D03*
X000970Y004773D03*
X000965Y004773D03*
X000960Y004773D03*
X000955Y004773D03*
X000950Y004773D03*
X000945Y004773D03*
X000940Y004773D03*
X000935Y004773D03*
X000930Y004773D03*
X000925Y004773D03*
X000920Y004773D03*
X000915Y004773D03*
X000910Y004773D03*
X000905Y004773D03*
X000900Y004773D03*
X000895Y004773D03*
X000890Y004773D03*
X000885Y004773D03*
X000880Y004773D03*
X000875Y004773D03*
X000870Y004773D03*
X000865Y004773D03*
X000860Y004773D03*
X000855Y004773D03*
X000850Y004773D03*
X000845Y004773D03*
X000840Y004773D03*
X000835Y004773D03*
X000830Y004773D03*
X000825Y004773D03*
X000820Y004773D03*
X000815Y004773D03*
X000810Y004773D03*
X000805Y004773D03*
X000800Y004773D03*
X000795Y004773D03*
X000790Y004773D03*
X000785Y004773D03*
X000780Y004773D03*
X000775Y004773D03*
X000770Y004773D03*
X000765Y004773D03*
X000760Y004773D03*
X000755Y004773D03*
X000750Y004773D03*
X000745Y004773D03*
X000735Y004773D03*
X000725Y004773D03*
X000710Y004768D03*
X000705Y004773D03*
X000690Y004768D03*
X000685Y004768D03*
X000675Y004768D03*
X000660Y004763D03*
X000745Y004928D03*
X000750Y004928D03*
X000770Y004923D03*
X000775Y004923D03*
X000780Y004923D03*
X000785Y004923D03*
X000790Y004923D03*
X000800Y004923D03*
X000815Y004923D03*
X000820Y004923D03*
X000835Y004923D03*
X000840Y004923D03*
X000845Y004923D03*
X000850Y004923D03*
X000870Y004928D03*
X001090Y004773D03*
X000955Y005373D03*
X000865Y005513D03*
X000840Y005508D03*
X000835Y005508D03*
X000830Y005508D03*
X000820Y005508D03*
X000815Y005508D03*
X000805Y005508D03*
X000795Y005508D03*
X000790Y005508D03*
X000785Y005508D03*
X000775Y005508D03*
X000755Y005513D03*
X000745Y005998D03*
X000760Y006003D03*
X000765Y006003D03*
X000770Y006003D03*
X000785Y006003D03*
X000790Y006008D03*
X000805Y006008D03*
X000815Y006008D03*
X000825Y006008D03*
X000835Y006003D03*
X000850Y006003D03*
X000855Y006003D03*
X000875Y005998D03*
X000875Y006168D03*
X000870Y006168D03*
X000860Y006168D03*
X000855Y006168D03*
X000850Y006168D03*
X000840Y006168D03*
X000835Y006168D03*
X000830Y006168D03*
X000820Y006168D03*
X000815Y006168D03*
X000810Y006168D03*
X000800Y006168D03*
X000795Y006168D03*
X000790Y006168D03*
X000780Y006168D03*
X000775Y006168D03*
X000770Y006168D03*
X000760Y006168D03*
X000755Y006168D03*
X000750Y006168D03*
X000740Y006168D03*
X000735Y006168D03*
X000880Y006168D03*
X000890Y006168D03*
X000895Y006168D03*
X000900Y006168D03*
X000905Y006168D03*
X000915Y006168D03*
X000920Y006168D03*
X000930Y006168D03*
X000935Y006168D03*
X000940Y006168D03*
X000950Y006168D03*
X000955Y006168D03*
X000960Y006168D03*
X000970Y006168D03*
X000975Y006168D03*
X000980Y006168D03*
X000990Y006168D03*
X000995Y006168D03*
X001000Y006168D03*
X001010Y006168D03*
X001015Y006168D03*
X001020Y006168D03*
X001030Y006168D03*
X001035Y006168D03*
X001040Y006168D03*
X001050Y006168D03*
X001055Y006168D03*
X001060Y006168D03*
X001070Y006168D03*
X001075Y006168D03*
X001080Y006168D03*
X001085Y006168D03*
X001090Y006168D03*
X000755Y006473D03*
X000750Y006473D03*
X000500Y006363D03*
X000525Y006168D03*
X000530Y006168D03*
X000535Y006168D03*
X000540Y006168D03*
X000745Y006958D03*
X000950Y006923D03*
X000955Y006923D03*
D51*
X000945Y006925D03*
X001095Y006170D03*
X000950Y005375D03*
X000945Y005375D03*
X000670Y005365D03*
X000665Y005365D03*
X001095Y004770D03*
X001095Y004370D03*
X001090Y004370D03*
X000520Y004370D03*
X000305Y003560D03*
X000300Y003560D03*
X001095Y003575D03*
X001095Y002810D03*
X001100Y002805D03*
X000720Y002620D03*
X000520Y002805D03*
X000630Y002260D03*
X000525Y002050D03*
X001170Y001595D03*
D52*
X001165Y001593D03*
X000520Y002048D03*
X001100Y002638D03*
X001105Y002808D03*
X000515Y002808D03*
X000295Y003558D03*
X001100Y003578D03*
X000945Y004178D03*
X000940Y004178D03*
X001100Y004368D03*
X000515Y004368D03*
X001100Y004773D03*
X001105Y004773D03*
X000940Y005373D03*
X001100Y006168D03*
X001105Y006168D03*
X000520Y006168D03*
X000515Y006168D03*
X000940Y006923D03*
D53*
X000510Y006165D03*
X000675Y005365D03*
X000510Y004370D03*
X001105Y004370D03*
X001105Y003575D03*
X000290Y003560D03*
X000510Y002805D03*
X001105Y002640D03*
X000635Y002260D03*
X000515Y002050D03*
X001160Y001590D03*
D54*
X001155Y001595D03*
X000725Y002430D03*
X001110Y002640D03*
X000495Y003010D03*
X001110Y003580D03*
X001115Y004370D03*
X000930Y005375D03*
X000495Y006370D03*
X000930Y006925D03*
D55*
X001115Y006168D03*
X000500Y006168D03*
X000485Y005168D03*
X000500Y004368D03*
X000930Y004178D03*
X000500Y002808D03*
X000640Y002258D03*
X000505Y002048D03*
X001150Y001593D03*
D56*
X001145Y001595D03*
X001120Y003580D03*
X000920Y004175D03*
X000920Y005370D03*
X001135Y005755D03*
D57*
X001140Y001600D03*
D58*
X001135Y001823D03*
X000500Y002048D03*
X000650Y002253D03*
X001135Y003333D03*
X000275Y003558D03*
X001135Y003973D03*
X001135Y006718D03*
D59*
X000485Y006715D03*
X000495Y006165D03*
X001135Y005170D03*
X001120Y004370D03*
X000495Y004365D03*
X000485Y003320D03*
X000495Y002810D03*
X001115Y002640D03*
X001135Y002385D03*
D60*
X001125Y002645D03*
X001125Y003580D03*
X000915Y004175D03*
D61*
X001125Y004370D03*
X000695Y005360D03*
X001125Y006165D03*
X001125Y002810D03*
D62*
X001120Y002643D03*
X001125Y004773D03*
X000920Y006918D03*
D63*
X001025Y006850D03*
X000500Y006710D03*
X000540Y006335D03*
X001120Y005175D03*
X000625Y004415D03*
X000595Y004100D03*
X001025Y004105D03*
X001005Y003515D03*
X001120Y002390D03*
X001010Y002000D03*
X000615Y002000D03*
D64*
X000485Y001813D03*
X000645Y002253D03*
X000485Y002433D03*
X001120Y002808D03*
X001115Y003578D03*
X000485Y003963D03*
X000485Y004623D03*
X001120Y004773D03*
X000925Y005373D03*
X000690Y005363D03*
X000485Y005753D03*
X000925Y006923D03*
D65*
X001115Y005175D03*
X001115Y003975D03*
X001015Y003505D03*
X000505Y002430D03*
X000605Y001990D03*
X001115Y001820D03*
D66*
X000510Y002048D03*
X000505Y002808D03*
X001110Y002808D03*
X001115Y002808D03*
X000285Y003558D03*
X000935Y004178D03*
X001110Y004368D03*
X000505Y004368D03*
X001110Y004773D03*
X001115Y004773D03*
X000935Y005373D03*
X000680Y005368D03*
X000505Y006168D03*
X001110Y006168D03*
X000935Y006923D03*
D67*
X000610Y006223D03*
X000505Y005758D03*
X000615Y004423D03*
X000610Y003503D03*
X000505Y003323D03*
X001115Y003333D03*
X000610Y002863D03*
X000735Y002438D03*
X000610Y001998D03*
X000505Y001813D03*
X001015Y001993D03*
D68*
X001015Y002570D03*
X000620Y004420D03*
X000505Y004615D03*
X001115Y005755D03*
D69*
X001110Y005753D03*
X000605Y006228D03*
X000505Y005173D03*
X001020Y003498D03*
X000605Y002868D03*
X000600Y001983D03*
X000510Y001813D03*
X001110Y001823D03*
D70*
X001025Y001980D03*
X000595Y001975D03*
X001110Y002395D03*
X001025Y003485D03*
X001110Y003975D03*
X000600Y004440D03*
X000515Y004610D03*
X001110Y005175D03*
D71*
X000510Y005755D03*
X000605Y004435D03*
X000600Y003490D03*
X000510Y003325D03*
X001110Y003330D03*
X000510Y002430D03*
D72*
X000510Y003968D03*
X000510Y006713D03*
X001110Y006723D03*
D73*
X000595Y004450D03*
X000520Y003325D03*
X001105Y002395D03*
D74*
X001025Y002548D03*
X000600Y002883D03*
X000515Y003323D03*
X000595Y003488D03*
X001105Y003333D03*
X000515Y001813D03*
X000510Y005173D03*
X001105Y005758D03*
X000600Y006243D03*
D75*
X000515Y006713D03*
X001105Y006723D03*
X001105Y005178D03*
X001105Y003978D03*
X000515Y003968D03*
D76*
X001100Y003333D03*
X001100Y001823D03*
X000520Y001813D03*
X000515Y005173D03*
X000520Y005758D03*
D77*
X001100Y005755D03*
X000525Y004610D03*
X000520Y002425D03*
D78*
X000525Y002428D03*
X000590Y002903D03*
X001095Y003333D03*
X000530Y004608D03*
X000525Y005758D03*
X000590Y006263D03*
X001095Y001823D03*
D79*
X000525Y003970D03*
X000535Y004605D03*
X001095Y005175D03*
X000525Y006715D03*
D80*
X001095Y005755D03*
X000520Y005170D03*
X000525Y003325D03*
X000525Y001815D03*
D81*
X000535Y001815D03*
X001085Y001820D03*
X001090Y002400D03*
X000560Y002910D03*
X000550Y002915D03*
X000545Y002915D03*
X000535Y003325D03*
X001085Y005755D03*
X000565Y006270D03*
X000555Y006275D03*
D82*
X000550Y006273D03*
X000560Y006273D03*
X000570Y006273D03*
X000530Y006713D03*
X001090Y006723D03*
X001090Y005178D03*
X000540Y004603D03*
X000530Y003968D03*
X001090Y003978D03*
X000570Y002913D03*
X000565Y002913D03*
X000555Y002913D03*
D83*
X000575Y002910D03*
X000585Y002905D03*
X000530Y002425D03*
X000530Y005755D03*
X001090Y005755D03*
X000580Y006270D03*
X000575Y006270D03*
D84*
X000560Y004548D03*
X000545Y003383D03*
X000550Y003378D03*
X000795Y002443D03*
X001080Y002458D03*
X001070Y001873D03*
X001065Y001868D03*
X000550Y001868D03*
X000545Y001873D03*
D85*
X000540Y003968D03*
X001080Y003978D03*
X001080Y005178D03*
X001080Y006723D03*
X000540Y006713D03*
D86*
X001080Y005755D03*
X000550Y004600D03*
X000540Y002420D03*
D87*
X000545Y002420D03*
X000740Y002495D03*
X000545Y003970D03*
X001075Y003975D03*
X001075Y005175D03*
X000545Y005170D03*
X000545Y006715D03*
X001075Y006725D03*
D88*
X001075Y005755D03*
X000545Y005755D03*
X000540Y005170D03*
D89*
X000585Y004555D03*
X000590Y004555D03*
X001070Y003390D03*
X001065Y002450D03*
X001060Y002450D03*
X000815Y002435D03*
D90*
X001070Y003978D03*
X001070Y005178D03*
X000550Y005173D03*
X001070Y006723D03*
D91*
X001070Y005758D03*
X000550Y005758D03*
D92*
X000560Y006713D03*
X001060Y006723D03*
X001060Y003978D03*
D93*
X000560Y003970D03*
X000560Y005170D03*
X000555Y005170D03*
X001060Y005175D03*
X001060Y005755D03*
X000750Y002480D03*
X000560Y002415D03*
D94*
X000830Y002430D03*
X001030Y002430D03*
X001040Y002440D03*
X001045Y002440D03*
X001055Y003380D03*
X000565Y003370D03*
D95*
X000570Y003970D03*
X000570Y005170D03*
X000565Y005170D03*
X000570Y005755D03*
X001050Y005755D03*
X001055Y006720D03*
X000570Y006715D03*
X000570Y002415D03*
X000565Y002415D03*
D96*
X001035Y002438D03*
X000580Y001853D03*
X000575Y001853D03*
X000580Y003363D03*
X001050Y003378D03*
D97*
X001045Y003375D03*
X001040Y003370D03*
X000575Y003365D03*
X001040Y001855D03*
X001035Y001850D03*
X001030Y001850D03*
D98*
X000580Y002418D03*
X000575Y003968D03*
X001045Y003978D03*
X000575Y005168D03*
X000575Y006713D03*
X001045Y006723D03*
D99*
X001045Y005758D03*
X000575Y005758D03*
X000760Y002468D03*
D100*
X000585Y001848D03*
X000590Y003358D03*
X000585Y003363D03*
X001030Y003363D03*
X001035Y003368D03*
D101*
X001035Y003978D03*
X000780Y002453D03*
X000590Y006713D03*
X001035Y006723D03*
D102*
X000915Y005373D03*
X000725Y002483D03*
X000595Y002403D03*
X001025Y001793D03*
D103*
X001015Y001675D03*
X000985Y002020D03*
X000635Y002015D03*
X001025Y002270D03*
X000520Y002985D03*
X000605Y004120D03*
X000645Y004400D03*
X000650Y004400D03*
X001015Y005020D03*
X001015Y005325D03*
X000605Y005605D03*
X000605Y005905D03*
X000520Y006345D03*
X001015Y006565D03*
X000605Y006865D03*
D104*
X001020Y006865D03*
X001020Y006575D03*
X000600Y005615D03*
X001020Y005315D03*
X001020Y005030D03*
X000640Y004405D03*
X001020Y004120D03*
X001020Y003830D03*
X001020Y003190D03*
X000595Y003195D03*
X000630Y002845D03*
X000600Y002290D03*
X000625Y002010D03*
X001020Y001680D03*
D105*
X001020Y002560D03*
X000605Y003500D03*
X000610Y004430D03*
D106*
X000865Y003955D03*
D107*
X000865Y006703D03*
D108*
X000860Y006705D03*
X000860Y003960D03*
D109*
X000855Y003965D03*
X000855Y006710D03*
D110*
X000850Y006713D03*
X000760Y006718D03*
X000845Y003968D03*
X000850Y003968D03*
D111*
X000840Y003970D03*
X000830Y003970D03*
X000770Y003970D03*
X000765Y003970D03*
X000760Y003970D03*
X000765Y006715D03*
X000770Y006715D03*
X000785Y006715D03*
X000830Y006715D03*
X000840Y006715D03*
X000845Y006715D03*
D112*
X000835Y006713D03*
X000820Y006718D03*
X000805Y006718D03*
X000800Y006718D03*
X000790Y006718D03*
X000780Y006718D03*
X000775Y006718D03*
X000775Y003973D03*
X000780Y003973D03*
X000785Y003973D03*
X000790Y003968D03*
X000795Y003973D03*
X000805Y003973D03*
X000815Y003973D03*
X000825Y003973D03*
X000835Y003968D03*
D113*
X000820Y003970D03*
X000810Y003970D03*
X000800Y003970D03*
X000795Y006715D03*
X000810Y006715D03*
X000815Y006715D03*
X000825Y006715D03*
D114*
X000585Y005758D03*
X000580Y005168D03*
X000775Y002458D03*
X000590Y002418D03*
D115*
X000745Y002485D03*
X000555Y005755D03*
X000555Y006715D03*
D116*
X000655Y002258D03*
D117*
X000590Y001850D03*
D118*
X000555Y004545D03*
X000565Y004550D03*
D119*
X000535Y003970D03*
X000540Y003325D03*
X000535Y002425D03*
X000535Y006715D03*
D120*
X000490Y006170D03*
X000490Y004370D03*
X000270Y003560D03*
X000490Y002805D03*
X000495Y002050D03*
D121*
X000490Y003018D03*
X000490Y006378D03*
D122*
X001313Y005824D02*
X001313Y005036D01*
X001318Y004992D01*
X001327Y004948D01*
X001338Y004904D01*
X001354Y004862D01*
X001372Y004821D01*
X001394Y004782D01*
X001418Y004745D01*
X001446Y004709D01*
X001476Y004676D01*
X001509Y004646D01*
X001544Y004618D01*
X001581Y004593D01*
X001620Y004571D01*
X001661Y004552D01*
X001703Y004537D01*
X001746Y004525D01*
X002454Y004525D02*
X002497Y004537D01*
X002539Y004552D01*
X002580Y004571D01*
X002619Y004593D01*
X002656Y004618D01*
X002691Y004646D01*
X002724Y004676D01*
X002754Y004709D01*
X002782Y004745D01*
X002806Y004782D01*
X002828Y004821D01*
X002846Y004862D01*
X002862Y004904D01*
X002873Y004948D01*
X002882Y004992D01*
X002887Y005036D01*
X002887Y005824D01*
X002882Y005868D01*
X002873Y005912D01*
X002862Y005956D01*
X002846Y005998D01*
X002828Y006039D01*
X002806Y006078D01*
X002782Y006115D01*
X002754Y006151D01*
X002724Y006184D01*
X002691Y006214D01*
X002656Y006242D01*
X002619Y006267D01*
X002580Y006289D01*
X002539Y006308D01*
X002497Y006323D01*
X002454Y006335D01*
X003300Y006680D02*
X003600Y006680D01*
X003600Y006780D01*
X003600Y006680D02*
X003900Y006680D01*
X003900Y004680D01*
X003600Y004680D01*
X003600Y004580D01*
X003600Y004680D02*
X003300Y004680D01*
X003300Y006680D01*
X001746Y006335D02*
X001703Y006323D01*
X001661Y006308D01*
X001620Y006289D01*
X001581Y006267D01*
X001544Y006242D01*
X001509Y006214D01*
X001476Y006184D01*
X001446Y006151D01*
X001418Y006115D01*
X001394Y006078D01*
X001372Y006039D01*
X001354Y005998D01*
X001338Y005956D01*
X001327Y005912D01*
X001318Y005868D01*
X001313Y005824D01*
X005800Y006180D02*
X005800Y004180D01*
X006100Y004180D01*
X006100Y004080D01*
X006100Y004180D02*
X006400Y004180D01*
X006400Y006180D01*
X006100Y006180D01*
X006100Y006280D01*
X006100Y006180D02*
X005800Y006180D01*
X007300Y006180D02*
X007600Y006180D01*
X007600Y006280D01*
X007600Y006180D02*
X007900Y006180D01*
X007900Y004180D01*
X007600Y004180D01*
X007600Y004080D01*
X007600Y004180D02*
X007300Y004180D01*
X007300Y006180D01*
X008300Y006180D02*
X008600Y006180D01*
X008600Y006280D01*
X008600Y006180D02*
X008900Y006180D01*
X008900Y004180D01*
X008600Y004180D01*
X008600Y004080D01*
X008600Y004180D02*
X008300Y004180D01*
X008300Y006180D01*
X011000Y006680D02*
X011100Y006680D01*
X011100Y006980D01*
X013100Y006980D01*
X013100Y006680D01*
X013200Y006680D01*
X013100Y006680D02*
X013100Y006380D01*
X011100Y006380D01*
X011100Y006680D01*
X011775Y005580D02*
X013425Y005580D01*
X013487Y005030D02*
X013645Y005030D01*
X012713Y005030D02*
X012487Y005030D01*
X011775Y005580D02*
X011738Y005529D01*
X011703Y005476D01*
X011671Y005420D01*
X011643Y005363D01*
X011619Y005304D01*
X011598Y005244D01*
X011581Y005183D01*
X011567Y005121D01*
X011558Y005058D01*
X011552Y004995D01*
X011550Y004931D01*
X011552Y004867D01*
X011558Y004804D01*
X011567Y004741D01*
X011580Y004679D01*
X011598Y004618D01*
X011618Y004558D01*
X011643Y004499D01*
X011670Y004442D01*
X011702Y004386D01*
X011736Y004333D01*
X011774Y004282D01*
X011815Y004233D01*
X011859Y004187D01*
X011905Y004143D01*
X011954Y004102D01*
X012005Y004065D01*
X012059Y004030D01*
X012114Y003999D01*
X012171Y003971D01*
X012230Y003947D01*
X012290Y003927D01*
X012910Y003927D02*
X012970Y003947D01*
X013029Y003971D01*
X013086Y003999D01*
X013141Y004030D01*
X013195Y004065D01*
X013246Y004102D01*
X013295Y004143D01*
X013341Y004187D01*
X013385Y004233D01*
X013426Y004282D01*
X013464Y004333D01*
X013498Y004386D01*
X013529Y004442D01*
X013557Y004499D01*
X013582Y004558D01*
X013602Y004618D01*
X013620Y004679D01*
X013633Y004741D01*
X013642Y004804D01*
X013648Y004867D01*
X013650Y004931D01*
X013648Y004995D01*
X013642Y005058D01*
X013633Y005121D01*
X013619Y005183D01*
X013602Y005244D01*
X013581Y005304D01*
X013557Y005363D01*
X013529Y005420D01*
X013497Y005476D01*
X013462Y005529D01*
X013425Y005580D01*
X011713Y005030D02*
X011555Y005030D01*
X015550Y004180D02*
X015850Y004180D01*
X015850Y004080D01*
X015850Y004180D02*
X016150Y004180D01*
X016150Y006180D01*
X015850Y006180D01*
X015850Y006280D01*
X015850Y006180D02*
X015550Y006180D01*
X015550Y004180D01*
X013850Y002180D02*
X013350Y002180D01*
X013100Y001930D01*
X012850Y002180D01*
X012350Y002180D01*
X012100Y001930D01*
X011850Y002180D01*
X011350Y002180D01*
X011100Y001930D01*
X010850Y002180D01*
X010350Y002180D01*
X010100Y001930D01*
X009850Y002180D01*
X009350Y002180D01*
X009100Y001930D01*
X008850Y002180D01*
X008350Y002180D01*
X008100Y001930D01*
X007850Y002180D01*
X007350Y002180D01*
X007100Y001930D01*
X006850Y002180D01*
X006350Y002180D01*
X006100Y001930D01*
X005850Y002180D01*
X005350Y002180D01*
X005100Y001930D01*
X004850Y002180D01*
X004350Y002180D01*
X004100Y001930D01*
X003850Y002180D01*
X003350Y002180D01*
X003100Y001930D01*
X002850Y002180D01*
X002350Y002180D01*
X002100Y001930D01*
X002100Y001430D01*
X002350Y001180D01*
X002850Y001180D01*
X003100Y001430D01*
X003350Y001180D01*
X003850Y001180D01*
X004100Y001430D01*
X004350Y001180D01*
X004850Y001180D01*
X005100Y001430D01*
X005350Y001180D01*
X005850Y001180D01*
X006100Y001430D01*
X006350Y001180D01*
X006850Y001180D01*
X007100Y001430D01*
X007350Y001180D01*
X007850Y001180D01*
X008100Y001430D01*
X008350Y001180D01*
X008850Y001180D01*
X009100Y001430D01*
X009350Y001180D01*
X009850Y001180D01*
X010100Y001430D01*
X010350Y001180D01*
X010850Y001180D01*
X011100Y001430D01*
X011350Y001180D01*
X011850Y001180D01*
X012100Y001430D01*
X012350Y001180D01*
X012850Y001180D01*
X013100Y001430D01*
X013350Y001180D01*
X013850Y001180D01*
X014100Y001430D01*
X014100Y001930D01*
X013850Y002180D01*
X004700Y003180D02*
X004600Y003180D01*
X004600Y002880D01*
X002600Y002880D01*
X002600Y003180D01*
X002500Y003180D01*
X002600Y003180D02*
X002600Y003480D01*
X004600Y003480D01*
X004600Y003180D01*
X004350Y008180D02*
X004100Y008430D01*
X003850Y008180D01*
X003350Y008180D01*
X003100Y008430D01*
X002850Y008180D01*
X002350Y008180D01*
X002100Y008430D01*
X002100Y008930D01*
X002350Y009180D01*
X002850Y009180D01*
X003100Y008930D01*
X003350Y009180D01*
X003850Y009180D01*
X004100Y008930D01*
X004350Y009180D01*
X004850Y009180D01*
X005100Y008930D01*
X005350Y009180D01*
X005850Y009180D01*
X006100Y008930D01*
X006350Y009180D01*
X006850Y009180D01*
X007100Y008930D01*
X007350Y009180D01*
X007850Y009180D01*
X008100Y008930D01*
X008350Y009180D01*
X008850Y009180D01*
X009100Y008930D01*
X009350Y009180D01*
X009850Y009180D01*
X010100Y008930D01*
X010350Y009180D01*
X010850Y009180D01*
X011100Y008930D01*
X011350Y009180D01*
X011850Y009180D01*
X012100Y008930D01*
X012350Y009180D01*
X012850Y009180D01*
X013100Y008930D01*
X013350Y009180D01*
X013850Y009180D01*
X014100Y008930D01*
X014100Y008430D01*
X013850Y008180D01*
X013350Y008180D01*
X013100Y008430D01*
X012850Y008180D01*
X012350Y008180D01*
X012100Y008430D01*
X011850Y008180D01*
X011350Y008180D01*
X011100Y008430D01*
X010850Y008180D01*
X010350Y008180D01*
X010100Y008430D01*
X009850Y008180D01*
X009350Y008180D01*
X009100Y008430D01*
X008850Y008180D01*
X008350Y008180D01*
X008100Y008430D01*
X007850Y008180D01*
X007350Y008180D01*
X007100Y008430D01*
X006850Y008180D01*
X006350Y008180D01*
X006100Y008430D01*
X005850Y008180D01*
X005350Y008180D01*
X005100Y008430D01*
X004850Y008180D01*
X004350Y008180D01*
X003450Y009480D02*
X001750Y009480D01*
X001400Y010287D02*
X001400Y011080D01*
X001900Y010680D02*
X001902Y010732D01*
X001908Y010784D01*
X001918Y010836D01*
X001931Y010886D01*
X001948Y010936D01*
X001969Y010984D01*
X001994Y011030D01*
X002022Y011074D01*
X002053Y011116D01*
X002087Y011156D01*
X002124Y011193D01*
X002164Y011227D01*
X002206Y011258D01*
X002250Y011286D01*
X002296Y011311D01*
X002344Y011332D01*
X002394Y011349D01*
X002444Y011362D01*
X002496Y011372D01*
X002548Y011378D01*
X002600Y011380D01*
X002652Y011378D01*
X002704Y011372D01*
X002756Y011362D01*
X002806Y011349D01*
X002856Y011332D01*
X002904Y011311D01*
X002950Y011286D01*
X002994Y011258D01*
X003036Y011227D01*
X003076Y011193D01*
X003113Y011156D01*
X003147Y011116D01*
X003178Y011074D01*
X003206Y011030D01*
X003231Y010984D01*
X003252Y010936D01*
X003269Y010886D01*
X003282Y010836D01*
X003292Y010784D01*
X003298Y010732D01*
X003300Y010680D01*
X003298Y010628D01*
X003292Y010576D01*
X003282Y010524D01*
X003269Y010474D01*
X003252Y010424D01*
X003231Y010376D01*
X003206Y010330D01*
X003178Y010286D01*
X003147Y010244D01*
X003113Y010204D01*
X003076Y010167D01*
X003036Y010133D01*
X002994Y010102D01*
X002950Y010074D01*
X002904Y010049D01*
X002856Y010028D01*
X002806Y010011D01*
X002756Y009998D01*
X002704Y009988D01*
X002652Y009982D01*
X002600Y009980D01*
X002548Y009982D01*
X002496Y009988D01*
X002444Y009998D01*
X002394Y010011D01*
X002344Y010028D01*
X002296Y010049D01*
X002250Y010074D01*
X002206Y010102D01*
X002164Y010133D01*
X002124Y010167D01*
X002087Y010204D01*
X002053Y010244D01*
X002022Y010286D01*
X001994Y010330D01*
X001969Y010376D01*
X001948Y010424D01*
X001931Y010474D01*
X001918Y010524D01*
X001908Y010576D01*
X001902Y010628D01*
X001900Y010680D01*
X003800Y011080D02*
X003800Y010275D01*
X003450Y011880D02*
X001750Y011880D01*
D123*
X005949Y010692D02*
X005986Y010721D01*
X006021Y010753D01*
X006054Y010788D01*
X006084Y010825D01*
X006110Y010864D01*
X006133Y010905D01*
X006154Y010949D01*
X006170Y010993D01*
X006183Y011039D01*
X006192Y011085D01*
X006198Y011133D01*
X006200Y011180D01*
X005232Y011654D02*
X005197Y011624D01*
X005164Y011593D01*
X005134Y011558D01*
X005107Y011522D01*
X005083Y011484D01*
X005061Y011444D01*
X005043Y011402D01*
X005027Y011359D01*
X005015Y011315D01*
X005007Y011271D01*
X005002Y011225D01*
X005000Y011180D01*
X005960Y011660D02*
X005996Y011631D01*
X006030Y011599D01*
X006061Y011564D01*
X006089Y011528D01*
X006114Y011489D01*
X006137Y011448D01*
X006156Y011406D01*
X006172Y011363D01*
X006184Y011318D01*
X006193Y011272D01*
X006198Y011226D01*
X006200Y011180D01*
X005232Y010706D02*
X005197Y010736D01*
X005164Y010767D01*
X005134Y010802D01*
X005107Y010838D01*
X005083Y010876D01*
X005061Y010916D01*
X005043Y010958D01*
X005027Y011001D01*
X005015Y011045D01*
X005007Y011089D01*
X005002Y011135D01*
X005000Y011180D01*
X007960Y011660D02*
X007996Y011631D01*
X008030Y011599D01*
X008061Y011564D01*
X008089Y011528D01*
X008114Y011489D01*
X008137Y011448D01*
X008156Y011406D01*
X008172Y011363D01*
X008184Y011318D01*
X008193Y011272D01*
X008198Y011226D01*
X008200Y011180D01*
X007232Y011654D02*
X007197Y011624D01*
X007164Y011593D01*
X007134Y011558D01*
X007107Y011522D01*
X007083Y011484D01*
X007061Y011444D01*
X007043Y011402D01*
X007027Y011359D01*
X007015Y011315D01*
X007007Y011271D01*
X007002Y011225D01*
X007000Y011180D01*
X007949Y010692D02*
X007986Y010721D01*
X008021Y010753D01*
X008054Y010788D01*
X008084Y010825D01*
X008110Y010864D01*
X008133Y010905D01*
X008154Y010949D01*
X008170Y010993D01*
X008183Y011039D01*
X008192Y011085D01*
X008198Y011133D01*
X008200Y011180D01*
X007232Y010706D02*
X007197Y010736D01*
X007164Y010767D01*
X007134Y010802D01*
X007107Y010838D01*
X007083Y010876D01*
X007061Y010916D01*
X007043Y010958D01*
X007027Y011001D01*
X007015Y011045D01*
X007007Y011089D01*
X007002Y011135D01*
X007000Y011180D01*
X009960Y011660D02*
X009996Y011631D01*
X010030Y011599D01*
X010061Y011564D01*
X010089Y011528D01*
X010114Y011489D01*
X010137Y011448D01*
X010156Y011406D01*
X010172Y011363D01*
X010184Y011318D01*
X010193Y011272D01*
X010198Y011226D01*
X010200Y011180D01*
X009232Y011654D02*
X009197Y011624D01*
X009164Y011593D01*
X009134Y011558D01*
X009107Y011522D01*
X009083Y011484D01*
X009061Y011444D01*
X009043Y011402D01*
X009027Y011359D01*
X009015Y011315D01*
X009007Y011271D01*
X009002Y011225D01*
X009000Y011180D01*
X009949Y010692D02*
X009986Y010721D01*
X010021Y010753D01*
X010054Y010788D01*
X010084Y010825D01*
X010110Y010864D01*
X010133Y010905D01*
X010154Y010949D01*
X010170Y010993D01*
X010183Y011039D01*
X010192Y011085D01*
X010198Y011133D01*
X010200Y011180D01*
X009232Y010706D02*
X009197Y010736D01*
X009164Y010767D01*
X009134Y010802D01*
X009107Y010838D01*
X009083Y010876D01*
X009061Y010916D01*
X009043Y010958D01*
X009027Y011001D01*
X009015Y011045D01*
X009007Y011089D01*
X009002Y011135D01*
X009000Y011180D01*
X011938Y006800D02*
X011938Y006460D01*
X011825Y006460D02*
X012052Y006460D01*
X012193Y006517D02*
X012250Y006460D01*
X012364Y006460D01*
X012420Y006517D01*
X012420Y006744D01*
X012193Y006517D01*
X012193Y006744D01*
X012250Y006800D01*
X012364Y006800D01*
X012420Y006744D01*
X012562Y006744D02*
X012618Y006800D01*
X012732Y006800D01*
X012789Y006744D01*
X012562Y006517D01*
X012618Y006460D01*
X012732Y006460D01*
X012789Y006517D01*
X012789Y006744D01*
X012562Y006744D02*
X012562Y006517D01*
X011938Y006800D02*
X011825Y006687D01*
X008820Y005869D02*
X008650Y005698D01*
X008707Y005642D02*
X008480Y005869D01*
X008480Y005642D02*
X008820Y005642D01*
X008820Y005500D02*
X008820Y005273D01*
X008820Y005387D02*
X008480Y005387D01*
X008593Y005273D01*
X007820Y005273D02*
X007820Y005500D01*
X007820Y005387D02*
X007480Y005387D01*
X007593Y005273D01*
X007480Y005642D02*
X007820Y005642D01*
X007707Y005642D02*
X007480Y005869D01*
X007650Y005698D02*
X007820Y005869D01*
X006320Y005869D02*
X006150Y005698D01*
X006207Y005642D02*
X005980Y005869D01*
X005980Y005642D02*
X006320Y005642D01*
X006320Y005500D02*
X006320Y005273D01*
X006320Y005387D02*
X005980Y005387D01*
X006093Y005273D01*
X003720Y005335D02*
X003663Y005278D01*
X003436Y005505D01*
X003663Y005505D01*
X003720Y005448D01*
X003720Y005335D01*
X003663Y005278D02*
X003436Y005278D01*
X003380Y005335D01*
X003380Y005448D01*
X003436Y005505D01*
X003380Y005647D02*
X003720Y005647D01*
X003607Y005647D02*
X003380Y005873D01*
X003550Y005703D02*
X003720Y005873D01*
X003720Y005137D02*
X003720Y004910D01*
X003720Y005023D02*
X003380Y005023D01*
X003493Y004910D01*
X003567Y003400D02*
X003567Y003060D01*
X003567Y003173D02*
X003793Y003400D01*
X003425Y003344D02*
X003198Y003117D01*
X003255Y003060D01*
X003368Y003060D01*
X003425Y003117D01*
X003425Y003344D01*
X003368Y003400D01*
X003255Y003400D01*
X003198Y003344D01*
X003198Y003117D01*
X003057Y003060D02*
X002830Y003060D01*
X002943Y003060D02*
X002943Y003400D01*
X002830Y003287D01*
X003623Y003230D02*
X003793Y003060D01*
X015630Y004523D02*
X015743Y004410D01*
X015630Y004523D02*
X015970Y004523D01*
X015970Y004410D02*
X015970Y004637D01*
X015913Y004778D02*
X015686Y005005D01*
X015913Y005005D01*
X015970Y004948D01*
X015970Y004835D01*
X015913Y004778D01*
X015686Y004778D01*
X015630Y004835D01*
X015630Y004948D01*
X015686Y005005D01*
X015686Y005147D02*
X015630Y005203D01*
X015630Y005317D01*
X015686Y005373D01*
X015913Y005147D01*
X015970Y005203D01*
X015970Y005317D01*
X015913Y005373D01*
X015686Y005373D01*
X015686Y005147D02*
X015913Y005147D01*
X033540Y007670D02*
X033540Y007990D01*
X033540Y007670D02*
X033760Y007670D01*
X034440Y007670D02*
X034660Y007670D01*
X034660Y007990D01*
D124*
X009083Y010569D02*
X009044Y010605D01*
X009006Y010644D01*
X008972Y010684D01*
X008940Y010727D01*
X008912Y010772D01*
X008886Y010819D01*
X008863Y010868D01*
X008844Y010918D01*
X008828Y010969D01*
X008816Y011021D01*
X008807Y011073D01*
X008802Y011127D01*
X008800Y011180D01*
X009976Y011886D02*
X010023Y011859D01*
X010068Y011829D01*
X010111Y011796D01*
X010151Y011760D01*
X010189Y011721D01*
X010224Y011680D01*
X010257Y011637D01*
X010286Y011592D01*
X010312Y011544D01*
X010335Y011495D01*
X010355Y011445D01*
X010371Y011394D01*
X010384Y011341D01*
X010393Y011288D01*
X010398Y011234D01*
X010400Y011180D01*
X009203Y011875D02*
X009155Y011845D01*
X009110Y011812D01*
X009067Y011776D01*
X009026Y011738D01*
X008989Y011696D01*
X008954Y011652D01*
X008923Y011606D01*
X008894Y011557D01*
X008870Y011507D01*
X008849Y011455D01*
X008831Y011401D01*
X008818Y011347D01*
X008808Y011292D01*
X008802Y011236D01*
X008800Y011180D01*
X010112Y010565D02*
X010152Y010601D01*
X010190Y010640D01*
X010225Y010681D01*
X010257Y010724D01*
X010287Y010769D01*
X010313Y010816D01*
X010335Y010865D01*
X010355Y010916D01*
X010371Y010967D01*
X010384Y011019D01*
X010393Y011073D01*
X010398Y011126D01*
X010400Y011180D01*
X007203Y011875D02*
X007155Y011845D01*
X007110Y011812D01*
X007067Y011776D01*
X007026Y011738D01*
X006989Y011696D01*
X006954Y011652D01*
X006923Y011606D01*
X006894Y011557D01*
X006870Y011507D01*
X006849Y011455D01*
X006831Y011401D01*
X006818Y011347D01*
X006808Y011292D01*
X006802Y011236D01*
X006800Y011180D01*
X007976Y011886D02*
X008023Y011859D01*
X008068Y011829D01*
X008111Y011796D01*
X008151Y011760D01*
X008189Y011721D01*
X008224Y011680D01*
X008257Y011637D01*
X008286Y011592D01*
X008312Y011544D01*
X008335Y011495D01*
X008355Y011445D01*
X008371Y011394D01*
X008384Y011341D01*
X008393Y011288D01*
X008398Y011234D01*
X008400Y011180D01*
X007083Y010569D02*
X007044Y010605D01*
X007006Y010644D01*
X006972Y010684D01*
X006940Y010727D01*
X006912Y010772D01*
X006886Y010819D01*
X006863Y010868D01*
X006844Y010918D01*
X006828Y010969D01*
X006816Y011021D01*
X006807Y011073D01*
X006802Y011127D01*
X006800Y011180D01*
X008112Y010565D02*
X008152Y010601D01*
X008190Y010640D01*
X008225Y010681D01*
X008257Y010724D01*
X008287Y010769D01*
X008313Y010816D01*
X008335Y010865D01*
X008355Y010916D01*
X008371Y010967D01*
X008384Y011019D01*
X008393Y011073D01*
X008398Y011126D01*
X008400Y011180D01*
X005203Y011875D02*
X005155Y011845D01*
X005110Y011812D01*
X005067Y011776D01*
X005026Y011738D01*
X004989Y011696D01*
X004954Y011652D01*
X004923Y011606D01*
X004894Y011557D01*
X004870Y011507D01*
X004849Y011455D01*
X004831Y011401D01*
X004818Y011347D01*
X004808Y011292D01*
X004802Y011236D01*
X004800Y011180D01*
X005976Y011886D02*
X006023Y011859D01*
X006068Y011829D01*
X006111Y011796D01*
X006151Y011760D01*
X006189Y011721D01*
X006224Y011680D01*
X006257Y011637D01*
X006286Y011592D01*
X006312Y011544D01*
X006335Y011495D01*
X006355Y011445D01*
X006371Y011394D01*
X006384Y011341D01*
X006393Y011288D01*
X006398Y011234D01*
X006400Y011180D01*
X005083Y010569D02*
X005044Y010605D01*
X005006Y010644D01*
X004972Y010684D01*
X004940Y010727D01*
X004912Y010772D01*
X004886Y010819D01*
X004863Y010868D01*
X004844Y010918D01*
X004828Y010969D01*
X004816Y011021D01*
X004807Y011073D01*
X004802Y011127D01*
X004800Y011180D01*
X006112Y010565D02*
X006152Y010601D01*
X006190Y010640D01*
X006225Y010681D01*
X006257Y010724D01*
X006287Y010769D01*
X006313Y010816D01*
X006335Y010865D01*
X006355Y010916D01*
X006371Y010967D01*
X006384Y011019D01*
X006393Y011073D01*
X006398Y011126D01*
X006400Y011180D01*
D125*
X001315Y008294D02*
X001214Y008395D01*
X001065Y008274D01*
X001005Y008305D01*
X000941Y008326D01*
X000922Y008516D01*
X000778Y008516D01*
X000759Y008326D01*
X000695Y008305D01*
X000635Y008274D01*
X000486Y008395D01*
X000385Y008294D01*
X000506Y008145D01*
X000475Y008085D01*
X000454Y008021D01*
X000264Y008002D01*
X000264Y007858D01*
X000454Y007839D01*
X000475Y007775D01*
X000506Y007715D01*
X000385Y007566D01*
X000486Y007465D01*
X000635Y007586D01*
X000695Y007555D01*
X000759Y007534D01*
X000778Y007344D01*
X000922Y007344D01*
X000941Y007534D01*
X001005Y007555D01*
X001065Y007586D01*
X001214Y007465D01*
X001315Y007566D01*
X001194Y007715D01*
X001225Y007775D01*
X001021Y007859D01*
X000999Y007822D01*
X000970Y007790D01*
X000934Y007766D01*
X000893Y007751D01*
X000850Y007745D01*
X000806Y007751D01*
X000765Y007766D01*
X000728Y007791D01*
X000699Y007824D01*
X000678Y007863D01*
X000667Y007906D01*
X000667Y007950D01*
X000677Y007993D01*
X000697Y008032D01*
X000725Y008066D01*
X000761Y008092D01*
X000802Y008108D01*
X000846Y008114D01*
X000890Y008110D01*
X000932Y008095D01*
X000969Y008071D01*
X000999Y008039D01*
X001021Y008001D01*
X001225Y008085D01*
X001194Y008145D01*
X001315Y008294D01*
X001313Y008296D02*
X001091Y008296D01*
X001024Y008296D02*
X000676Y008296D01*
X000609Y008296D02*
X000387Y008296D01*
X000430Y008238D02*
X001270Y008238D01*
X001223Y008181D02*
X000477Y008181D01*
X000494Y008123D02*
X001206Y008123D01*
X001177Y008065D02*
X000974Y008065D01*
X001016Y008008D02*
X001038Y008008D01*
X001007Y007835D02*
X001079Y007835D01*
X000952Y007778D02*
X001218Y007778D01*
X001197Y007720D02*
X000503Y007720D01*
X000474Y007778D02*
X000748Y007778D01*
X000693Y007835D02*
X000455Y007835D01*
X000463Y007663D02*
X001237Y007663D01*
X001284Y007605D02*
X000416Y007605D01*
X000404Y007547D02*
X000588Y007547D01*
X000517Y007490D02*
X000461Y007490D01*
X000718Y007547D02*
X000982Y007547D01*
X000937Y007490D02*
X000763Y007490D01*
X000769Y007432D02*
X000931Y007432D01*
X000925Y007375D02*
X000775Y007375D01*
X001183Y007490D02*
X001239Y007490D01*
X001296Y007547D02*
X001112Y007547D01*
X000670Y007893D02*
X000264Y007893D01*
X000264Y007950D02*
X000667Y007950D01*
X000684Y008008D02*
X000322Y008008D01*
X000469Y008065D02*
X000725Y008065D01*
X000761Y008353D02*
X000939Y008353D01*
X000933Y008411D02*
X000767Y008411D01*
X000773Y008468D02*
X000927Y008468D01*
X001162Y008353D02*
X001256Y008353D01*
X000538Y008353D02*
X000444Y008353D01*
M02*
