%
M48
M72
T01C0.0276
T02C0.0315
T03C0.0320
T04C0.0350
T05C0.0354
T06C0.0400
%
T01
X5100Y5180
X16100Y2180
X17600Y2180
X17600Y1180
X21100Y1180
X21100Y2180
X21100Y3180
X24600Y3180
X24600Y2180
X24600Y1180
X28100Y1180
X28100Y2180
X28100Y3180
X31100Y3180
X31100Y2180
X31100Y1180
X17600Y3180
X17600Y7180
X17600Y8180
X17600Y9180
X16100Y9180
X21100Y9180
X21100Y8180
X21100Y7180
X24600Y7180
X24600Y8180
X24600Y9180
X28100Y9180
X28100Y8180
X28100Y7180
X31100Y7180
X31100Y8180
X32600Y8180
X35100Y7680
X32600Y9180
X31100Y9180
T02
X2100Y6217
X2100Y4643
T03
X12100Y4930
X13100Y4930
X12600Y4180
X9600Y10680
X7600Y10680
X5600Y10680
X5600Y11680
X7600Y11680
X9600Y11680
T04
X2600Y1680
X3600Y1680
X4600Y1680
X5600Y1680
X6600Y1680
X7600Y1680
X8600Y1680
X9600Y1680
X10600Y1680
X11600Y1680
X12600Y1680
X13600Y1680
X13600Y8680
X12600Y8680
X11600Y8680
X10600Y8680
X9600Y8680
X8600Y8680
X7600Y8680
X6600Y8680
X5600Y8680
X4600Y8680
X3600Y8680
X2600Y8680
T05
X3600Y7180
X6100Y6680
X7600Y6680
X8600Y6680
X10600Y6680
X13600Y6680
X15850Y6680
X15850Y3680
X8600Y3680
X7600Y3680
X6100Y3680
X5100Y3180
X3600Y4180
X2100Y3180
T06
X1320Y9790
X3880Y9790
X3880Y11570
X1320Y11570
M30
