G75*
%MOIN*%
%OFA0B0*%
%FSLAX24Y24*%
%IPPOS*%
%LPD*%
%AMOC8*
5,1,8,0,0,1.08239X$1,22.5*
%
%ADD10C,0.0690*%
%ADD11C,0.0740*%
%ADD12C,0.0660*%
%ADD13OC8,0.0560*%
%ADD14C,0.0240*%
%ADD15C,0.0476*%
%ADD16C,0.0160*%
%ADD17C,0.0100*%
%ADD18C,0.0120*%
%ADD19C,0.0080*%
D10*
X002600Y001680D03*
X003600Y001680D03*
X004600Y001680D03*
X005600Y001680D03*
X006600Y001680D03*
X007600Y001680D03*
X008600Y001680D03*
X009600Y001680D03*
X010600Y001680D03*
X011600Y001680D03*
X012600Y001680D03*
X013600Y001680D03*
X013600Y008680D03*
X012600Y008680D03*
X011600Y008680D03*
X010600Y008680D03*
X009600Y008680D03*
X008600Y008680D03*
X007600Y008680D03*
X006600Y008680D03*
X005600Y008680D03*
X004600Y008680D03*
X003600Y008680D03*
X002600Y008680D03*
D11*
X001320Y009790D03*
X003880Y009790D03*
X003880Y011570D03*
X001320Y011570D03*
X011100Y011180D03*
X012100Y011180D03*
X013100Y011180D03*
X003600Y007180D03*
X006100Y006680D03*
X007600Y006680D03*
X008600Y006680D03*
X010600Y006680D03*
X013600Y006680D03*
X015850Y006680D03*
X013100Y004930D03*
X012100Y004930D03*
X012600Y004180D03*
X015850Y003680D03*
X008600Y003680D03*
X007600Y003680D03*
X006100Y003680D03*
X005100Y003180D03*
X003600Y004180D03*
X002100Y003180D03*
D12*
X002100Y004643D03*
X002100Y006217D03*
D13*
X005350Y010680D03*
X007350Y010680D03*
X009350Y010680D03*
X009350Y011680D03*
X007350Y011680D03*
X005350Y011680D03*
D14*
X012350Y010930D02*
X014100Y009180D01*
X015100Y007680D01*
X015100Y003680D01*
X015850Y003680D01*
X015100Y003680D02*
X014600Y003680D01*
X014100Y004180D01*
X014100Y005180D01*
X013600Y005680D01*
X012100Y005680D01*
X012100Y004930D01*
X012100Y005680D02*
X002600Y005680D01*
X002100Y006180D01*
X005100Y005180D02*
X005100Y004180D01*
X003600Y004180D01*
X003100Y004180D01*
X002100Y003180D01*
X005100Y004180D02*
X005600Y004180D01*
X006100Y003680D01*
X007600Y003680D01*
X008600Y003680D01*
D15*
X005100Y005180D03*
X015100Y008680D03*
X016100Y009180D03*
X017600Y009180D03*
X017600Y008180D03*
X017600Y007180D03*
X021100Y007180D03*
X021100Y008180D03*
X021100Y009180D03*
X024600Y009180D03*
X024600Y008180D03*
X024600Y007180D03*
X028100Y007180D03*
X028100Y008180D03*
X028100Y009180D03*
X031100Y009180D03*
X032600Y009180D03*
X032600Y008180D03*
X031100Y008180D03*
X031100Y007180D03*
X035100Y007680D03*
X031100Y003180D03*
X031100Y002180D03*
X031100Y001180D03*
X028100Y001180D03*
X028100Y002180D03*
X028100Y003180D03*
X024600Y003180D03*
X024600Y002180D03*
X024600Y001180D03*
X021100Y001180D03*
X021100Y002180D03*
X021100Y003180D03*
X017600Y003180D03*
X017600Y002180D03*
X016100Y002180D03*
X017600Y001180D03*
D16*
X016100Y002180D02*
X014600Y002180D01*
X012600Y004180D01*
X003600Y007180D02*
X002100Y007180D01*
X001600Y007680D01*
X001600Y008930D01*
X002100Y009680D01*
X003880Y009790D01*
X015100Y008680D02*
X032100Y008680D01*
X032600Y008180D01*
X035100Y007680D02*
X015100Y007680D01*
X016100Y009180D02*
X016600Y009680D01*
X032100Y009680D01*
X032600Y009180D01*
D17*
X013600Y001680D02*
X012100Y003180D01*
X005100Y003180D01*
X002100Y006180D02*
X002100Y006217D01*
D18*
X005850Y009930D02*
X006600Y009180D01*
X011100Y009180D01*
X011600Y008680D01*
X011600Y009680D02*
X012600Y008680D01*
X013600Y008680D02*
X012100Y010180D01*
X011600Y009680D02*
X008350Y009680D01*
X007850Y010180D01*
X007850Y011180D01*
X007350Y011680D01*
X005850Y011180D02*
X005850Y009930D01*
X005850Y011180D02*
X005350Y011680D01*
X009350Y011680D02*
X009850Y011180D01*
X009850Y010680D01*
X010350Y010180D01*
X012100Y011180D02*
X012350Y010930D01*
D19*
X012100Y010180D02*
X010350Y010180D01*
X006600Y008680D02*
X005600Y009680D01*
X004100Y009680D01*
X003880Y009790D01*
M02*
