G75*
%MOIN*%
%OFA0B0*%
%FSLAX24Y24*%
%IPPOS*%
%LPD*%
%AMOC8*
5,1,8,0,0,1.08239X$1,22.5*
%
%ADD10C,0.0160*%
%ADD11C,0.0770*%
%ADD12C,0.0820*%
%ADD13C,0.0740*%
%ADD14OC8,0.0640*%
%ADD15R,0.0474X0.0631*%
%ADD16C,0.0556*%
D10*
X017100Y000280D02*
X031600Y000280D01*
X031600Y003830D01*
X017100Y003830D01*
X017100Y000280D01*
X017100Y000347D02*
X031600Y000347D01*
X031600Y000506D02*
X017100Y000506D01*
X017100Y000664D02*
X031600Y000664D01*
X031600Y000823D02*
X017100Y000823D01*
X017100Y000981D02*
X031600Y000981D01*
X031600Y001140D02*
X017100Y001140D01*
X017100Y001298D02*
X031600Y001298D01*
X031600Y001457D02*
X017100Y001457D01*
X017100Y001615D02*
X031600Y001615D01*
X031600Y001774D02*
X017100Y001774D01*
X017100Y001932D02*
X031600Y001932D01*
X031600Y002091D02*
X017100Y002091D01*
X017100Y002249D02*
X031600Y002249D01*
X031600Y002408D02*
X017100Y002408D01*
X017100Y002566D02*
X031600Y002566D01*
X031600Y002725D02*
X017100Y002725D01*
X017100Y002883D02*
X031600Y002883D01*
X031600Y003042D02*
X017100Y003042D01*
X017100Y003200D02*
X031600Y003200D01*
X031600Y003359D02*
X017100Y003359D01*
X017100Y003517D02*
X031600Y003517D01*
X031600Y003676D02*
X017100Y003676D01*
X017100Y006530D02*
X017100Y010080D01*
X031500Y010080D01*
X031600Y006530D01*
X017100Y006530D01*
X017100Y006687D02*
X031596Y006687D01*
X031591Y006846D02*
X017100Y006846D01*
X017100Y007004D02*
X031587Y007004D01*
X031582Y007163D02*
X017100Y007163D01*
X017100Y007321D02*
X031578Y007321D01*
X031573Y007480D02*
X017100Y007480D01*
X017100Y007638D02*
X031569Y007638D01*
X031564Y007797D02*
X017100Y007797D01*
X017100Y007955D02*
X031560Y007955D01*
X031555Y008114D02*
X017100Y008114D01*
X017100Y008272D02*
X031551Y008272D01*
X031546Y008431D02*
X017100Y008431D01*
X017100Y008589D02*
X031542Y008589D01*
X031538Y008748D02*
X017100Y008748D01*
X017100Y008906D02*
X031533Y008906D01*
X031529Y009065D02*
X017100Y009065D01*
X017100Y009223D02*
X031524Y009223D01*
X031520Y009382D02*
X017100Y009382D01*
X017100Y009540D02*
X031515Y009540D01*
X031511Y009699D02*
X017100Y009699D01*
X017100Y009857D02*
X031506Y009857D01*
X031502Y010016D02*
X017100Y010016D01*
D11*
X002600Y001680D03*
X003600Y001680D03*
X004600Y001680D03*
X005600Y001680D03*
X006600Y001680D03*
X007600Y001680D03*
X008600Y001680D03*
X009600Y001680D03*
X010600Y001680D03*
X011600Y001680D03*
X012600Y001680D03*
X013600Y001680D03*
X013600Y008680D03*
X012600Y008680D03*
X011600Y008680D03*
X010600Y008680D03*
X009600Y008680D03*
X008600Y008680D03*
X007600Y008680D03*
X006600Y008680D03*
X005600Y008680D03*
X004600Y008680D03*
X003600Y008680D03*
X002600Y008680D03*
D12*
X001320Y009790D03*
X003880Y009790D03*
X003880Y011570D03*
X001320Y011570D03*
X003600Y007180D03*
X006100Y006680D03*
X007600Y006680D03*
X008600Y006680D03*
X010600Y006680D03*
X013600Y006680D03*
X015850Y006680D03*
X013100Y004930D03*
X012100Y004930D03*
X012600Y004180D03*
X015850Y003680D03*
X008600Y003680D03*
X007600Y003680D03*
X006100Y003680D03*
X005100Y003180D03*
X003600Y004180D03*
X002100Y003180D03*
D13*
X002100Y004643D03*
X002100Y006217D03*
D14*
X005600Y010680D03*
X007600Y010680D03*
X009600Y010680D03*
X009600Y011680D03*
X007600Y011680D03*
X005600Y011680D03*
D15*
X033726Y008363D03*
X034474Y008363D03*
X034100Y007497D03*
D16*
X035100Y007680D03*
X032600Y008180D03*
X031100Y008180D03*
X031100Y007180D03*
X028100Y007180D03*
X028100Y008180D03*
X028100Y009180D03*
X031100Y009180D03*
X032600Y009180D03*
X024600Y009180D03*
X024600Y008180D03*
X024600Y007180D03*
X021100Y007180D03*
X021100Y008180D03*
X021100Y009180D03*
X017600Y009180D03*
X016100Y009180D03*
X017600Y008180D03*
X017600Y007180D03*
X017600Y003180D03*
X017600Y002180D03*
X016100Y002180D03*
X017600Y001180D03*
X021100Y001180D03*
X021100Y002180D03*
X021100Y003180D03*
X024600Y003180D03*
X024600Y002180D03*
X024600Y001180D03*
X028100Y001180D03*
X028100Y002180D03*
X028100Y003180D03*
X031100Y003180D03*
X031100Y002180D03*
X031100Y001180D03*
X005100Y005180D03*
M02*
